<svg width="28" height="28" viewBox="0 0 28 28" fill="none" xmlns="http://www.w3.org/2000/svg">
<g clip-path="url(#clip0_6206_45037)">
<path d="M0 0H28V28H0V0Z" fill="url(#paint0_linear_6206_45037)"/>
<path d="M20.5226 19.0954C20.5226 20.2916 19.6451 21.2702 18.5727 21.2702H9.42685C8.35446 21.2702 7.47693 20.2916 7.47693 19.0954C7.47693 18.3631 7.80614 17.7119 8.30738 17.3175L13.1738 12.9715C13.2644 12.894 13.3817 13.0189 13.3165 13.1232L11.5314 16.6975C11.4814 16.7974 11.5463 16.9206 11.6491 16.9206H18.5731C19.6454 16.9206 20.5226 17.8995 20.5226 19.0954ZM20.5226 8.90432C20.5226 9.63662 20.1934 10.2878 19.6922 10.6822L14.8257 15.0282C14.7352 15.1057 14.6178 14.9808 14.683 14.8765L16.4681 11.3022C16.5181 11.2023 16.4533 11.0791 16.3504 11.0791H9.42685C8.35446 11.0791 7.47693 10.1006 7.47693 8.90432C7.47693 7.70807 8.35446 6.72949 9.42685 6.72949H18.5731C19.6454 6.72949 20.5226 7.70807 20.5226 8.90432Z" fill="white"/>
</g>
<defs>
<linearGradient id="paint0_linear_6206_45037" x1="0" y1="0" x2="0" y2="28" gradientUnits="userSpaceOnUse">
<stop stop-color="#50ADFF"/>
<stop offset="1" stop-color="#7877FC"/>
</linearGradient>
<clipPath id="clip0_6206_45037">
<rect width="28" height="28" rx="4" fill="white"/>
</clipPath>
</defs>
</svg>
