<svg xmlns="http://www.w3.org/2000/svg" viewBox="0 0 256 256">
<rect width="256" height="256" fill="url(#paint1_linear_6276_93077)"/>
<!-- For the non-beta logo, the Z in the foreground SVG is 44/108 high,
     and in the designed iOS logo is 132.9/256 high.
     That's a scaling of 132.9px / 44px = 3.02.
     Apply the same scaling to this Z+BETA foreground. -->
<use href="#foreground"
     style="transform: translate(128, 128) scale(3.02) translate(-54, -54)" />
<defs>
<g id="foreground">
<!-- The same paths as in zulip-white-z-beta-on-transparent.svg . -->
<path d="M73.476 61.419C73.476 65.0388 70.8206 68 67.5756 68H39.9004C36.6554 68 34 65.0388 34 61.419C34 59.2031 34.9962 57.2326 36.5129 56.0392L51.2388 42.8881C51.5128 42.6536 51.8678 43.0317 51.6706 43.3473L46.2688 54.1629C46.1176 54.4654 46.3137 54.838 46.625 54.838H67.5767C70.8217 54.838 73.476 57.8003 73.476 61.419ZM73.476 30.581C73.476 32.7969 72.4799 34.7674 70.9631 35.9608L56.2373 49.1119C55.9633 49.3464 55.6082 48.9683 55.8055 48.6527L61.2072 37.8371C61.3585 37.5346 61.1623 37.162 60.8511 37.162H39.9004C36.6554 37.162 34 34.2008 34 30.581C34 26.9612 36.6554 24 39.9004 24H67.5767C70.8217 24 73.476 26.9612 73.476 30.581V30.581Z" fill="white"/>
<path d="M35 81.5338V73.4582C35 72.5467 35.4551 72.0871 36.3884 72.0871H39.3889C41.3018 72.0871 42.5051 73.1174 42.5051 74.75C42.5051 75.9704 41.8263 76.8501 40.7002 77.1195V77.2147C42.1194 77.3494 43.0451 78.3796 43.0451 79.8537C43.0451 81.7082 41.6103 82.9049 39.3812 82.9049H36.3884C35.4551 82.9049 35 82.4532 35 81.5338ZM37.0672 76.5886H38.4402C39.8363 76.5886 40.4533 76.0576 40.4533 75.1145C40.4533 74.2348 39.8826 73.6959 38.9107 73.6959H37.0672V76.5886ZM37.0672 81.2961H38.6099C40.2528 81.2961 40.9239 80.7572 40.9239 79.7269C40.9239 78.7046 40.2605 78.0785 39.0418 78.0785H37.0672V81.2961ZM45.9672 81.5338V73.4582C45.9672 72.5467 46.4222 72.0871 47.3555 72.0871H52.0144C52.5389 72.0871 52.8938 72.4438 52.8938 72.9668C52.8938 73.4898 52.5389 73.8385 52.0144 73.8385H48.0344V76.6123H51.7984C52.2921 76.6123 52.6238 76.9373 52.6238 77.4365C52.6238 77.9358 52.2921 78.2528 51.7984 78.2528H48.0344V81.1534H51.9912C52.5389 81.1534 52.8938 81.5021 52.8938 82.0331C52.8938 82.5641 52.5389 82.9049 51.9912 82.9049H47.3555C46.4222 82.9049 45.9672 82.4532 45.9672 81.5338ZM58.9629 82.9841C58.315 82.9841 57.9216 82.5562 57.9216 81.8429V73.8861H55.6924C55.1757 73.8861 54.7977 73.5057 54.7977 72.9906C54.7977 72.4676 55.1757 72.0871 55.6924 72.0871H62.2411C62.7656 72.0871 63.1358 72.4596 63.1358 72.9906C63.1358 73.5137 62.7656 73.8861 62.2411 73.8861H60.0042V81.8429C60.0042 82.5482 59.6031 82.9841 58.9629 82.9841ZM64.9626 83C64.3918 83 63.9985 82.6434 63.9985 82.1045C63.9985 81.8905 64.0525 81.6448 64.1836 81.2406L66.837 73.4265C67.1687 72.42 67.6392 72 68.5185 72C69.3901 72 69.853 72.4121 70.1846 73.4265L72.838 81.2406C72.946 81.5814 73 81.8429 73 82.0648C73 82.6354 72.6066 83 72.0127 83C71.4496 83 71.1256 82.6988 70.9174 81.9618L70.3234 80.1231H66.6287L66.0425 81.9618C65.8266 82.7067 65.518 83 64.9626 83ZM67.0915 78.5302H69.8683L68.5339 74.1556H68.4337L67.0915 78.5302Z" fill="white"/>
</g>
<linearGradient id="paint1_linear_6276_93077" x1="0" x2="0" y1="0" y2="100%">
<stop stop-color="#339FFF"/>
<stop offset="1" stop-color="#6753FD"/>
</linearGradient>
</defs>
</svg>
