<svg width="256" height="256" viewBox="0 0 256 256" fill="none" xmlns="http://www.w3.org/2000/svg">
<rect width="256" height="256" fill="url(#paint1_linear_6276_93077)"/>
<path d="M187.525 174.56C187.525 185.497 179.502 194.444 169.697 194.444H86.0778C76.2732 194.444 68.25 185.497 68.25 174.56C68.25 167.864 71.2599 161.911 75.8427 158.305L120.336 118.57C121.164 117.861 122.237 119.003 121.641 119.957L105.32 152.636C104.863 153.55 105.455 154.676 106.396 154.676H169.7C179.505 154.676 187.525 163.626 187.525 174.56ZM187.525 81.3841C187.525 88.0795 184.515 94.0331 179.932 97.6391L135.439 137.374C134.611 138.083 133.538 136.94 134.134 135.987L150.455 103.308C150.912 102.394 150.32 101.268 149.379 101.268H86.0778C76.2732 101.268 68.25 92.3212 68.25 81.3841C68.25 70.447 76.2732 61.5 86.0778 61.5H169.7C179.505 61.5 187.525 70.447 187.525 81.3841V81.3841Z" fill="white"/>
<defs>
<linearGradient id="paint1_linear_6276_93077" x1="0" y1="0" x2="0" y2="256" gradientUnits="userSpaceOnUse">
<stop stop-color="#339FFF"/>
<stop offset="1" stop-color="#6753FD"/>
</linearGradient>
</defs>
</svg>
