<svg width="108" height="108" viewBox="0 0 108 108" fill="none" xmlns="http://www.w3.org/2000/svg">
<path d="M73.476 69.419C73.476 73.0388 70.8206 76 67.5756 76H39.9004C36.6554 76 34 73.0388 34 69.419C34 67.2031 34.9962 65.2326 36.5129 64.0392L51.2388 50.8881C51.5128 50.6536 51.8678 51.0317 51.6706 51.3473L46.2688 62.1629C46.1176 62.4654 46.3137 62.838 46.625 62.838H67.5767C70.8217 62.838 73.476 65.8003 73.476 69.419ZM73.476 38.581C73.476 40.7969 72.4799 42.7674 70.9631 43.9608L56.2373 57.1119C55.9633 57.3464 55.6082 56.9683 55.8055 56.6527L61.2072 45.8371C61.3585 45.5346 61.1623 45.162 60.8511 45.162H39.9004C36.6554 45.162 34 42.2008 34 38.581C34 34.9612 36.6554 32 39.9004 32H67.5767C70.8217 32 73.476 34.9612 73.476 38.581V38.581Z" fill="white"/>
</svg>
