<?xml version="1.0" encoding="UTF-8" standalone="no"?>
<svg width="24" height="24" viewBox="0 0 24 24" xmlns="http://www.w3.org/2000/svg">
  <path d="M 2.0996094,1.0917969 C 0.95350661,1.0917969 0,2.0453035 0,3.1914063 V 6.4960937 C 0,7.6421965 0.95350661,8.5957031 2.0996094,8.5957031 H 21.900391 C 23.046493,8.5957031 24,7.6421965 24,6.4960937 V 3.1914063 C 24,2.0453035 23.046493,1.0917969 21.900391,1.0917969 Z m 0,2 H 21.900391 c 0.0727,0 0.09961,0.026912 0.09961,0.099609 v 3.3046874 c 0,0.072697 -0.02691,0.099609 -0.09961,0.099609 H 2.0996094 C 2.0269121,6.5957031 2,6.5687912 2,6.4960937 V 3.1914063 c 0,-0.072697 0.026912,-0.099609 0.099609,-0.099609 z" />
  <path d="m 3.1992188,6.5957031 a 1,1 0 0 0 -1,1 V 19.707031 c 10e-8,1.756087 1.4452091,3.201172 3.2011718,3.201172 H 18.599609 c 1.755963,0 3.201172,-1.445085 3.201172,-3.201172 V 7.5957031 a 1,1 0 0 0 -1,-1 1,1 0 0 0 -1,1 V 19.707031 c 0,0.676198 -0.527082,1.201172 -1.201172,1.201172 H 5.4003906 c -0.67409,0 -1.2011718,-0.524974 -1.2011719,-1.201172 V 7.5957031 a 1,1 0 0 0 -0.9999999,-1 z" />
  <path d="m 9.8007813,11 a 1,1 0 0 0 -1,1 1,1 0 0 0 1,1 h 4.3984377 a 1,1 0 0 0 1,-1 1,1 0 0 0 -1,-1 z" />
</svg>
