<svg width="14" height="14" viewBox="0 0 14 14" fill="none" xmlns="http://www.w3.org/2000/svg">
  <path d="M 7,4.1660156 C 5.4411124,4.1660156 4.1660156,5.441115 4.1660156,7 4.1660156,8.5588771 5.4411124,9.8339844 7,9.8339844 8.5588797,9.8339844 9.8339844,8.5588797 9.8339844,7 9.8339844,5.4411124 8.5588797,4.1660156 7,4.1660156 Z m 0,1 C 8.0184377,5.1660156 8.8339844,5.9815502 8.8339844,7 8.8339844,8.0184377 8.0184377,8.8339844 7,8.8339844 5.9815502,8.8339844 5.1660156,8.0184403 5.1660156,7 5.1660156,5.9815476 5.9815502,5.1660156 7,5.1660156 Z"/>
  <path d="M 6.3300781,0.703125 C 5.6292679,0.77776044 4.9410704,0.96808911 4.2949219,1.2734375 3.0026303,1.8841368 1.9530593,2.9156285 1.3203125,4.1972656 0.6875535,5.4789055 0.507641,6.9366999 0.80859375,8.3339844 1.1095349,9.7312654 1.8742763,10.98499 2.9785156,11.892578 c 1.1042378,0.907487 2.4829814,1.414917 3.9121094,1.439453 1.4290953,0.02454 2.8261613,-0.433663 3.960938,-1.302734 a 0.5,0.5 0 0 0 0.0918,-0.701172 0.5,0.5 0 0 0 -0.701171,-0.09375 C 9.2864858,11.966302 8.1118452,12.352696 6.9082031,12.332031 5.7045937,12.311367 4.5433014,11.885405 3.6132813,11.121094 2.6832426,10.356683 2.0405677,9.2998632 1.7871094,8.1230469 1.5336427,6.946234 1.683877,5.7180896 2.2167969,4.6386719 2.7497089,3.5592513 3.632317,2.6920739 4.7207031,2.1777344 5.8091037,1.6633923 7.0405937,1.533058 8.2128906,1.8066406 9.3851971,2.0802142 10.429429,2.7425759 11.177734,3.6855469 11.926034,4.6285198 12.333893,5.7961853 12.333984,7 v 0.5839844 c 0,0.3316955 -0.132614,0.6482463 -0.367187,0.8828125 -0.234581,0.2345664 -0.551141,0.3671875 -0.882813,0.3671875 -0.331671,0 -0.650131,-0.1325959 -0.884765,-0.3671875 C 9.9646628,8.2322409 9.8339844,7.9157014 9.8339844,7.5839844 V 4.6660156 a 0.5,0.5 0 0 0 -0.5,-0.5 0.5,0.5 0 0 0 -0.5,0.5 v 2.9179688 c 0,0.596542 0.2363797,1.1680203 0.6582031,1.5898437 0.4218448,0.4217677 0.9952695,0.6601563 1.5917965,0.6601563 0.596528,0 1.168026,-0.2383634 1.589844,-0.6601563 0.421826,-0.4218132 0.660156,-0.9932802 0.660156,-1.5898437 V 7 C 13.333876,5.5706974 12.849436,4.182145 11.960938,3.0625 11.072445,1.942873 9.8313841,1.1568571 8.4394531,0.83203125 7.7434929,0.66961284 7.0308883,0.62848956 6.3300781,0.703125 Z"/>
</svg>
