<svg width="24" height="25" viewBox="0 0 24 25" fill="none" xmlns="http://www.w3.org/2000/svg">
<path d="M19.2058 4.20528L8.20577 15.2053C7.81622 15.5948 7.18464 15.5948 6.79509 15.2053L1.79509 10.2053C1.40554 9.81573 1.40554 9.18415 1.79509 8.7946C2.18464 8.40505 2.81622 8.40505 3.20577 8.7946L7.50043 13.0893L17.7951 2.7946C18.1846 2.40505 18.8162 2.40505 19.2058 2.7946C19.5953 3.18415 19.5953 3.81573 19.2058 4.20528Z" fill="black"/>
<path d="M12.7045 13.2045C13.1438 12.7652 13.8562 12.7652 14.2955 13.2045L17.25 16.159L20.2045 13.2045C20.6438 12.7652 21.3562 12.7652 21.7955 13.2045C22.2348 13.6438 22.2348 14.3562 21.7955 14.7955L18.841 17.75L21.7955 20.7045C22.2348 21.1438 22.2348 21.8562 21.7955 22.2955C21.3562 22.7348 20.6438 22.7348 20.2045 22.2955L17.25 19.341L14.2955 22.2955C13.8562 22.7348 13.1438 22.7348 12.7045 22.2955C12.2652 21.8562 12.2652 21.1438 12.7045 20.7045L15.659 17.75L12.7045 14.7955C12.2652 14.3562 12.2652 13.6438 12.7045 13.2045Z" fill="black"/>
</svg>
