<svg width="24" height="24" viewBox="0 0 24 24" fill="none" xmlns="http://www.w3.org/2000/svg">
<path d="M15.7053 8.2946C16.0949 8.68415 16.0949 9.31573 15.7053 9.70528L13.4107 11.9999L15.7053 14.2946C16.0949 14.6842 16.0949 15.3157 15.7053 15.7053C15.3158 16.0948 14.6842 16.0948 14.2947 15.7053L12 13.4106L9.70534 15.7053C9.31579 16.0948 8.68421 16.0948 8.29466 15.7053C7.90511 15.3157 7.90511 14.6842 8.29466 14.2946L10.5893 11.9999L8.29466 9.70528C7.90511 9.31573 7.90511 8.68415 8.29466 8.2946C8.68421 7.90505 9.31579 7.90505 9.70534 8.2946L12 10.5893L14.2947 8.2946C14.6842 7.90505 15.3158 7.90505 15.7053 8.2946Z" fill="black"/>
<path d="M1.0025 12.0002C1.0025 5.92643 5.92625 1.00269 12 1.00269C18.0738 1.00269 22.9975 5.92643 22.9975 12.0002C22.9975 18.0739 18.0738 22.9977 12 22.9977C5.92625 22.9977 1.0025 18.0739 1.0025 12.0002ZM12 2.99769C7.02806 2.99769 2.9975 7.02824 2.9975 12.0002C2.9975 16.9721 7.02806 21.0027 12 21.0027C16.9719 21.0027 21.0025 16.9721 21.0025 12.0002C21.0025 7.02824 16.9719 2.99769 12 2.99769Z" fill="black"/>
</svg>
