<svg width="16" height="16" viewBox="0 0 16 16" fill="none" xmlns="http://www.w3.org/2000/svg">
  <path d="M 8,0.66796875 C 3.9587113,0.66796875 0.66796875,3.9587203 0.66796875,8 c 0,4.041325 3.29075095,7.332031 7.33203125,7.332031 4.041262,0 7.332031,-3.290703 7.332031,-7.332031 C 15.332031,3.9587167 12.041271,0.66796875 8,0.66796875 Z M 8,1.9980469 c 3.322482,0 6.001953,2.6794637 6.001953,6.0019531 0,3.322544 -2.679463,6.001953 -6.001953,6.001953 C 4.6774876,14.001953 1.9980469,11.322548 1.9980469,8 1.9980469,4.677507 4.677496,1.9980469 8,1.9980469 Z" />
  <path d="M 8,3.3359375 A 0.66500002,0.66500002 0 0 0 7.3359375,4 V 8 A 0.66506652,0.66506652 0 0 0 7.703125,8.5957031 l 2.666016,1.3320313 A 0.66500002,0.66500002 0 0 0 11.261719,9.6308594 0.66500002,0.66500002 0 0 0 10.964844,8.7382813 L 8.6640625,7.5898437 V 4 A 0.66500002,0.66500002 0 0 0 8,3.3359375 Z"/>
</svg>
