<svg width="24" height="24" viewBox="0 0 24 24" fill="none" xmlns="http://www.w3.org/2000/svg">
<path d="M7.68776 11.9611C8.14927 11.3842 8.82925 11 9.6 11H14.4C15.1707 11 15.8507 11.3842 16.3122 11.9611C16.7691 12.5322 17 13.2677 17 14C17 14.5523 16.5523 15 16 15C15.4477 15 15 14.5523 15 14C15 13.6715 14.8937 13.3895 14.7505 13.2105C14.6119 13.0372 14.4779 13 14.4 13H9.6C9.52205 13 9.38811 13.0372 9.2495 13.2105C9.10626 13.3895 9 13.6715 9 14C9 14.5523 8.55228 15 8 15C7.44772 15 7 14.5523 7 14C7 13.2677 7.23089 12.5322 7.68776 11.9611Z" fill="black"/>
<path fill-rule="evenodd" clip-rule="evenodd" d="M12 4C10.3431 4 9 5.34315 9 7C9 8.65685 10.3431 10 12 10C13.6569 10 15 8.65685 15 7C15 5.34315 13.6569 4 12 4ZM11 7C11 6.44772 11.4477 6 12 6C12.5523 6 13 6.44772 13 7C13 7.55228 12.5523 8 12 8C11.4477 8 11 7.55228 11 7Z" fill="black"/>
<path fill-rule="evenodd" clip-rule="evenodd" d="M22 21.2223C22 22.8639 20.5429 24.0001 19 24.0001H5C3.45713 24.0001 2 22.8639 2 21.2223V2.77778C2 1.13618 3.45713 0 5 0H19C20.5429 0 22 1.13618 22 2.77778V21.2223ZM5 2C4.33373 2 4 2.4557 4 2.77778V15.2222C4 15.5443 4.33373 16 5 16H19C19.6663 16 20 15.5443 20 15.2222V2.77778C20 2.4557 19.6663 2 19 2H5ZM4 20.8389V21.2223C4 21.5444 4.33373 22.0001 5 22.0001H19C19.6663 22.0001 20 21.5444 20 21.2223V20.8389C19.6809 20.944 19.3426 21.0001 19 21.0001H5C4.65744 21.0001 4.3191 20.944 4 20.8389ZM20 18.2223V17.8389C19.6809 17.944 19.3426 18 19 18H5C4.65744 18 4.3191 17.944 4 17.8389V18.2223C4 18.5444 4.33373 19.0001 5 19.0001H19C19.6663 19.0001 20 18.5444 20 18.2223Z" fill="black"/>
</svg>
