<?xml version="1.0" encoding="UTF-8" standalone="no"?>
<svg
   width="16"
   height="16"
   viewBox="0 0 16 16"
   version="1.1"
   id="svg1"
   sodipodi:docname="corner-down-right.svg"
   inkscape:version="1.4.2 (ebf0e940, 2025-05-08)"
   xmlns:inkscape="http://www.inkscape.org/namespaces/inkscape"
   xmlns:sodipodi="http://sodipodi.sourceforge.net/DTD/sodipodi-0.dtd"
   xmlns="http://www.w3.org/2000/svg"
   xmlns:svg="http://www.w3.org/2000/svg">
  <defs
     id="defs1" />
  <sodipodi:namedview
     id="namedview1"
     pagecolor="#ffffff"
     bordercolor="#000000"
     borderopacity="0.25"
     inkscape:showpageshadow="2"
     inkscape:pageopacity="0.0"
     inkscape:pagecheckerboard="0"
     inkscape:deskcolor="#d1d1d1"
     inkscape:zoom="9.3635497"
     inkscape:cx="0.32039131"
     inkscape:cy="5.9806379"
     inkscape:window-width="1512"
     inkscape:window-height="921"
     inkscape:window-x="0"
     inkscape:window-y="33"
     inkscape:window-maximized="1"
     inkscape:current-layer="svg1" />
  <path
     d="M 1.7770349,0.85476131 V 7.0750492 a 2.6662186,2.6662186 0 0 0 2.6662186,2.6662186 h 8.5185685 l -2.923509,-2.926175 a 0.88918389,0.88918389 0 0 1 1.25579,-1.257122 l 4.443252,4.4432532 0.0067,0.0067 a 0.88518456,0.88518456 0 0 1 0,1.245124 l -0.0067,0.0067 -4.443252,4.443253 a 0.88918389,0.88918389 0 1 1 -1.25579,-1.257173 l 2.926175,-2.926175 H 4.4459196 A 4.4432532,4.4432532 0 0 1 2.0551182e-7,7.0750492 V 0.85476131 a 0.88918389,0.88918389 0 0 1 1.77703469448818,0 z"
     id="path1"
     style="stroke-width:1.33311" />
</svg>
