<svg width="24" height="24" viewBox="0 0 24 24" fill="none" xmlns="http://www.w3.org/2000/svg">
<path fill-rule="evenodd" clip-rule="evenodd" d="M20 0.878662C19.1722 0.878662 18.3783 1.20751 17.7929 1.79288L8.29291 11.2929C8.16476 11.421 8.07384 11.5816 8.02988 11.7574L7.02988 15.7574C6.94468 16.0982 7.04453 16.4587 7.29291 16.7071C7.54129 16.9555 7.90178 17.0553 8.24256 16.9701L12.2426 15.9701C12.4184 15.9262 12.579 15.8352 12.7071 15.7071L22.2071 6.20709C22.7925 5.62173 23.1213 4.82781 23.1213 3.99998C23.1213 3.17216 22.7925 2.37824 22.2071 1.79288C21.6218 1.20751 20.8278 0.878662 20 0.878662ZM19.2071 3.20709C19.4174 2.9968 19.7026 2.87866 20 2.87866C20.2974 2.87866 20.5826 2.9968 20.7929 3.20709C21.0032 3.41738 21.1213 3.70259 21.1213 3.99998C21.1213 4.29737 21.0032 4.58259 20.7929 4.79288L11.4888 14.097L9.37439 14.6256L9.90298 12.5112L19.2071 3.20709Z" fill="black"/>
<path d="M4 3C3.20435 3 2.44129 3.31607 1.87868 3.87868C1.31607 4.44129 1 5.20435 1 6V20C1 20.7957 1.31607 21.5587 1.87868 22.1213C2.44129 22.6839 3.20435 23 4 23H18C18.7957 23 19.5587 22.6839 20.1213 22.1213C20.6839 21.5587 21 20.7957 21 20V13C21 12.4477 20.5523 12 20 12C19.4477 12 19 12.4477 19 13V20C19 20.2652 18.8946 20.5196 18.7071 20.7071C18.5196 20.8946 18.2652 21 18 21H4C3.73478 21 3.48043 20.8946 3.29289 20.7071C3.10536 20.5196 3 20.2652 3 20V6C3 5.73478 3.10536 5.48043 3.29289 5.29289C3.48043 5.10536 3.73478 5 4 5H11C11.5523 5 12 4.55228 12 4C12 3.44772 11.5523 3 11 3H4Z" fill="black"/>
</svg>
