<svg width="24" height="24" viewBox="0 0 24 24" fill="none" xmlns="http://www.w3.org/2000/svg">
<path d="M12 5.99817C10.0686 5.99817 8.18067 6.57166 6.57559 7.64592C4.98019 8.7137 3.73564 10.2284 2.99755 12.0001C3.73564 13.7717 4.98019 15.2864 6.57559 16.3542C8.18067 17.4285 10.0686 18.0019 12 18.0019C13.9314 18.0019 15.8193 17.4285 17.4244 16.3542C19.0198 15.2864 20.2644 13.7717 21.0025 12.0001C20.2644 10.2284 19.0198 8.7137 17.4244 7.64592C15.8193 6.57166 13.9314 5.99817 12 5.99817ZM5.46595 5.98799C7.39938 4.69397 9.6735 4.00317 12 4.00317C14.3265 4.00317 16.6006 4.69397 18.534 5.98799C20.4675 7.28201 21.9731 9.12097 22.8602 11.2717C22.8647 11.2827 22.869 11.2938 22.8732 11.3049C23.0396 11.7534 23.0396 12.2467 22.8732 12.6952C22.869 12.7063 22.8647 12.7174 22.8602 12.7284C21.9731 14.8791 20.4675 16.7181 18.534 18.0121C16.6006 19.3061 14.3265 19.9969 12 19.9969C9.6735 19.9969 7.39938 19.3061 5.46595 18.0121C3.53253 16.7181 2.02686 14.8791 1.13985 12.7284C1.13532 12.7174 1.13098 12.7063 1.12685 12.6952C0.960376 12.2467 0.960376 11.7534 1.12685 11.3049C1.13098 11.2938 1.13532 11.2827 1.13985 11.2717C2.02686 9.12097 3.53253 7.28201 5.46595 5.98799ZM12 9.99756C10.894 9.99756 9.9975 10.8941 9.9975 12.0001C9.9975 13.106 10.894 14.0026 12 14.0026C13.1059 14.0026 14.0025 13.106 14.0025 12.0001C14.0025 10.8941 13.1059 9.99756 12 9.99756ZM8.0025 12.0001C8.0025 9.7923 9.79224 8.00256 12 8.00256C14.2078 8.00256 15.9975 9.7923 15.9975 12.0001C15.9975 14.2078 14.2078 15.9976 12 15.9976C9.79224 15.9976 8.0025 14.2078 8.0025 12.0001Z" fill="black"/>
</svg>
