<svg width="16" height="16" viewBox="0 0 16 16" fill="none" xmlns="http://www.w3.org/2000/svg">
<path d="M8 4.00008C5.47333 4.00008 3.22 5.42008 2.12 7.66675C3.22 9.91341 5.47333 11.3334 8 11.3334C10.5267 11.3334 12.78 9.91341 13.88 7.66675C12.78 5.42008 10.5267 4.00008 8 4.00008ZM8 2.66675C11.3333 2.66675 14.18 4.74008 15.3333 7.66675C14.18 10.5934 11.3333 12.6667 8 12.6667C4.66667 12.6667 1.82 10.5934 0.666667 7.66675C1.82 4.74008 4.66667 2.66675 8 2.66675ZM8 6.00008C7.08 6.00008 6.33333 6.74675 6.33333 7.66675C6.33333 8.58675 7.08 9.33341 8 9.33341C8.92 9.33341 9.66667 8.58675 9.66667 7.66675C9.66667 6.74675 8.92 6.00008 8 6.00008ZM8 4.66675C9.65333 4.66675 11 6.01341 11 7.66675C11 9.32008 9.65333 10.6667 8 10.6667C6.34667 10.6667 5 9.32008 5 7.66675C5 6.01341 6.34667 4.66675 8 4.66675Z" fill="black"/>
</svg>
