<svg width="24" height="24" viewBox="0 0 24 24" fill="none" xmlns="http://www.w3.org/2000/svg">
<path d="M1.29466 1.2946C1.68421 0.905054 2.31579 0.905054 2.70534 1.2946L22.7053 21.2946C23.0949 21.6842 23.0949 22.3157 22.7053 22.7053C22.3158 23.0948 21.6842 23.0948 21.2947 22.7053L17.3155 18.7261C16.045 19.3707 14.6659 19.7798 13.2451 19.9312C11.5697 20.1098 9.87554 19.9258 8.27753 19.3919C6.67952 18.858 5.21505 17.9866 3.9835 16.8368C2.75194 15.6871 1.78212 14.2858 1.13983 12.7282C1.1353 12.7172 1.13098 12.7062 1.12685 12.6951C0.960376 12.2466 0.960376 11.7533 1.12685 11.3048C1.13098 11.2937 1.1353 11.2826 1.13983 11.2717C1.94704 9.31414 3.26502 7.61868 4.94583 6.35645L1.29466 2.70528C0.905113 2.31573 0.905113 1.68415 1.29466 1.2946ZM6.37367 7.78429C4.87793 8.84075 3.70548 10.3004 2.99755 11.9999C3.53081 13.2801 4.33103 14.432 5.34492 15.3786C6.36733 16.3331 7.5831 17.0565 8.90973 17.4997C10.2364 17.943 11.6428 18.0957 13.0337 17.9475C13.9936 17.8452 14.9307 17.6012 15.8148 17.2254L14.0319 15.4426C13.4112 15.809 12.6975 16.0038 11.9651 15.9974C10.917 15.9883 9.91437 15.5679 9.17321 14.8267C8.43204 14.0856 8.01162 13.0829 8.00252 12.0348C7.99615 11.3024 8.19097 10.5887 8.55737 9.96799L6.37367 7.78429ZM10.0668 11.4774C10.0196 11.6519 9.99584 11.8335 9.99744 12.0175C10.002 12.5425 10.2126 13.0448 10.5839 13.4161C10.9552 13.7873 11.4574 13.9979 11.9825 14.0025C12.1664 14.0041 12.348 13.9804 12.5225 13.9332L10.0668 11.4774ZM16.937 7.33831C15.1016 6.26131 12.9642 5.81461 10.851 6.06643C10.304 6.13162 9.8077 5.74101 9.74251 5.19398C9.67732 4.64695 10.0679 4.15064 10.615 4.08545C13.1606 3.78208 15.7356 4.32021 17.9467 5.61767C20.1578 6.91512 21.8835 8.9006 22.8603 11.2709C22.8648 11.2818 22.8691 11.2928 22.8732 11.3038C23.0396 11.7523 23.0396 12.2456 22.8732 12.6941C22.869 12.7052 22.8647 12.7163 22.8601 12.7273C22.4585 13.701 21.9278 14.6162 21.2821 15.4484C20.9444 15.8837 20.3178 15.9628 19.8825 15.6251C19.4473 15.2874 19.3682 14.6607 19.7059 14.2255C20.2347 13.5439 20.6707 12.7952 21.0025 11.9989C20.1893 10.0455 18.7625 8.40946 16.937 7.33831Z" fill="black"/>
</svg>
