<svg xmlns="http://www.w3.org/2000/svg" width="24" height="24" viewBox="0 0 24 24" fill="none">
  <path d="M14.7021 3.84158C13.8441 2.35543 11.9261 1.84152 10.4399 2.69954C8.9538 3.55757 8.43988 5.47553 9.29791 6.96168C10.1559 8.44783 12.0739 8.96175 13.5601 8.10372C15.0462 7.24569 15.5601 5.32773 14.7021 3.84158Z" fill="black"/>
  <path d="M17.3337 7.7618C18.8199 6.90377 20.7379 7.41769 21.5959 8.90383C22.4539 10.39 21.94 12.3079 20.4538 13.166C18.9677 14.024 17.0497 13.5101 16.1917 12.0239C15.3337 10.5378 15.8476 8.61983 17.3337 7.7618Z" fill="black"/>
  <path d="M6.22364 15.8963C7.70979 15.0383 9.62775 15.5522 10.4858 17.0384C11.3438 18.5245 10.8299 20.4425 9.34374 21.3005C7.85759 22.1585 5.93963 21.6446 5.0816 20.1585C4.22358 18.6723 4.73749 16.7543 6.22364 15.8963Z" fill="black"/>
  <path d="M14.6885 15.8963C16.1746 15.0383 18.0926 15.5522 18.9506 17.0384C19.8087 18.5245 19.2947 20.4425 17.8086 21.3005C16.3224 22.1585 14.4045 21.6446 13.5464 20.1585C12.6884 18.6723 13.2023 16.7543 14.6885 15.8963Z" fill="black"/>
  <path d="M7.80829 8.90383C6.95026 7.41769 5.0323 6.90377 3.54615 7.7618C2.06 8.61983 1.54609 10.5378 2.40411 12.0239C3.26214 13.5101 5.1801 14.024 6.66625 13.166C8.1524 12.3079 8.66632 10.39 7.80829 8.90383Z" fill="black"/>
</svg>