<svg xmlns="http://www.w3.org/2000/svg" width="24" height="24" viewBox="0 0 24 24" fill="none">
  <path d="M5.67774 1.41561C4.1916 0.55758 2.27364 1.0715 1.41561 2.55764C0.557579 4.04379 1.0715 5.96175 2.55764 6.81978C4.04379 7.67781 5.96175 7.16389 6.81978 5.67774C7.67781 4.1916 7.16389 2.27364 5.67774 1.41561Z" fill="black"/>
  <path d="M21.4415 1.41561C19.9553 0.55758 18.0373 1.0715 17.1793 2.55764C16.3213 4.04379 16.8352 5.96175 18.3214 6.81978C19.8075 7.67781 21.7255 7.16389 22.5835 5.67774C23.4415 4.1916 22.9276 2.27364 21.4415 1.41561Z" fill="black"/>
  <path d="M9.29814 10.4397C10.1562 8.95358 12.0741 8.43966 13.5603 9.29769C15.0464 10.1557 15.5603 12.0737 14.7023 13.5598C13.8443 15.046 11.9263 15.5599 10.4402 14.7019C8.95403 13.8438 8.44011 11.9259 9.29814 10.4397Z" fill="black"/>
  <path d="M13.5598 17.1803C12.0737 16.3222 10.1557 16.8361 9.29769 18.3223C8.43966 19.8084 8.95358 21.7264 10.4397 22.5844C11.9259 23.4425 13.8438 22.9285 14.7019 21.4424C15.5599 19.9562 15.046 18.0383 13.5598 17.1803Z" fill="black"/>
  <path d="M9.29814 2.55764C10.1562 1.0715 12.0741 0.55758 13.5603 1.41561C15.0464 2.27364 15.5603 4.1916 14.7023 5.67774C13.8443 7.16389 11.9263 7.67781 10.4402 6.81978C8.95403 5.96175 8.44011 4.04379 9.29814 2.55764Z" fill="black"/>
  <path d="M5.67774 17.1803C4.1916 16.3222 2.27364 16.8361 1.41561 18.3223C0.557579 19.8084 1.0715 21.7264 2.55764 22.5844C4.04379 23.4425 5.96175 22.9285 6.81978 21.4424C7.67781 19.9562 7.16389 18.0383 5.67774 17.1803Z" fill="black"/>
  <path d="M1.41561 10.4397C2.27364 8.95358 4.1916 8.43966 5.67774 9.29769C7.16389 10.1557 7.67781 12.0737 6.81978 13.5598C5.96175 15.046 4.04379 15.5599 2.55764 14.7019C1.0715 13.8438 0.557579 11.9259 1.41561 10.4397Z" fill="black"/>
  <path d="M21.4424 9.29818C19.9562 8.44015 18.0382 8.95406 17.1802 10.4402C16.3222 11.9264 16.8361 13.8443 18.3223 14.7023C19.8084 15.5604 21.7264 15.0465 22.5844 13.5603C23.4424 12.0742 22.9285 10.1562 21.4424 9.29818Z" fill="black"/>
  <path d="M17.1798 18.3223C18.0378 16.8361 19.9558 16.3222 21.4419 17.1803C22.9281 18.0383 23.442 19.9562 22.5839 21.4424C21.7259 22.9285 19.808 23.4425 18.3218 22.5844C16.8357 21.7264 16.3217 19.8084 17.1798 18.3223Z" fill="black"/>
</svg>