<svg xmlns="http://www.w3.org/2000/svg" width="24" height="24" viewBox="0 0 24 24" fill="none">
  <path d="M9.80274 2.79061C8.3166 1.93258 6.39864 2.4465 5.54061 3.93264C4.68258 5.41879 5.1965 7.33675 6.68264 8.19478C8.16879 9.05281 10.0868 8.53889 10.9448 7.05274C11.8028 5.5666 11.2889 3.64863 9.80274 2.79061Z" fill="black"/>
  <path d="M17.3169 2.79061C15.8308 1.93258 13.9128 2.4465 13.0548 3.93264C12.1967 5.41879 12.7107 7.33675 14.1968 8.19478C15.683 9.05281 17.6009 8.53889 18.4589 7.05274C19.317 5.5666 18.8031 3.64863 17.3169 2.79061Z" fill="black"/>
  <path d="M9.29791 10.4397C10.1559 8.95358 12.0739 8.43966 13.5601 9.29769C15.0462 10.1557 15.5601 12.0737 14.7021 13.5598C13.8441 15.046 11.9261 15.5599 10.4399 14.7019C8.9538 13.8438 8.43989 11.9259 9.29791 10.4397Z" fill="black"/>
  <path d="M9.80274 15.8048C8.3166 14.9467 6.39864 15.4607 5.54061 16.9468C4.68258 18.433 5.1965 20.3509 6.68264 21.2089C8.16879 22.067 10.0868 21.5531 10.9448 20.0669C11.8028 18.5808 11.2889 16.6628 9.80274 15.8048Z" fill="black"/>
  <path d="M1.41561 10.4397C2.27364 8.95358 4.1916 8.43966 5.67774 9.29769C7.16389 10.1557 7.67781 12.0737 6.81978 13.5598C5.96175 15.046 4.04379 15.5599 2.55764 14.7019C1.0715 13.8438 0.557579 11.9259 1.41561 10.4397Z" fill="black"/>
  <path d="M21.4419 9.29769C19.9558 8.43966 18.0378 8.95358 17.1798 10.4397C16.3217 11.9259 16.8357 13.8438 18.3218 14.7019C19.808 15.5599 21.7259 15.046 22.5839 13.5598C23.442 12.0737 22.9281 10.1557 21.4419 9.29769Z" fill="black"/>
  <path d="M13.0548 16.9468C13.9128 15.4607 15.8308 14.9467 17.3169 15.8048C18.8031 16.6628 19.317 18.5808 18.4589 20.0669C17.6009 21.5531 15.683 22.067 14.1968 21.2089C12.7107 20.3509 12.1967 18.433 13.0548 16.9468Z" fill="black"/>
</svg>