<svg xmlns="http://www.w3.org/2000/svg" width="24" height="24" viewBox="0 0 24 24" fill="none">
  <path d="M15.0138 4.78942C14.5696 3.13184 12.85 2.13903 11.1925 2.58318C9.53488 3.02733 8.54207 4.74692 8.98622 6.4045C9.43036 8.06209 11.15 9.0549 12.8075 8.61075C14.4651 8.1666 15.4579 6.447 15.0138 4.78942Z" fill="black"/>
  <path d="M21.4175 11.1918C20.9733 9.53418 19.2537 8.54137 17.5961 8.98552C15.9386 9.42967 14.9458 11.1493 15.3899 12.8068C15.834 14.4644 17.5536 15.4572 19.2112 15.0131C20.8688 14.5689 21.8616 12.8493 21.4175 11.1918Z" fill="black"/>
  <path d="M8.6101 11.1918C8.16595 9.53418 6.44636 8.54137 4.78877 8.98552C3.13119 9.42967 2.13838 11.1493 2.58253 12.8068C3.02668 14.4644 4.74628 15.4572 6.40386 15.0131C8.06144 14.5689 9.05425 12.8493 8.6101 11.1918Z" fill="black"/>
  <path d="M15.0138 17.5955C14.5696 15.9379 12.85 14.9451 11.1925 15.3892C9.53488 15.8334 8.54207 17.553 8.98622 19.2105C9.43036 20.8681 11.15 21.8609 12.8075 21.4168C14.4651 20.9726 15.4579 19.253 15.0138 17.5955Z" fill="black"/>
</svg>