<svg xmlns="http://www.w3.org/2000/svg" width="24" height="24" viewBox="0 0 24 24" fill="none">
  <path d="M1.41561 2.55764C2.27364 1.0715 4.1916 0.55758 5.67774 1.41561C7.16389 2.27363 7.67781 4.1916 6.81978 5.67774C5.96175 7.16389 4.04379 7.67781 2.55764 6.81978C1.0715 5.96175 0.557579 4.04379 1.41561 2.55764Z" fill="black"/>
  <path d="M17.1793 2.55764C18.0373 1.0715 19.9553 0.55758 21.4415 1.41561C22.9276 2.27363 23.4415 4.1916 22.5835 5.67774C21.7255 7.16389 19.8075 7.67781 18.3214 6.81978C16.8352 5.96175 16.3213 4.04379 17.1793 2.55764Z" fill="black"/>
  <path d="M13.7424 13.3607C12.2563 12.5026 10.3383 13.0166 9.4803 14.5027C8.62228 15.9889 9.13619 17.9068 10.6223 18.7648C12.1085 19.6229 14.0265 19.109 14.8845 17.6228C15.7425 16.1367 15.2286 14.2187 13.7424 13.3607Z" fill="black"/>
  <path d="M9.4803 6.55185C10.3383 5.0657 12.2563 4.55178 13.7424 5.40981C15.2286 6.26784 15.7425 8.1858 14.8845 9.67195C14.0265 11.1581 12.1085 11.672 10.6223 10.814C9.13619 9.95595 8.62228 8.03799 9.4803 6.55185Z" fill="black"/>
  <path d="M5.67774 17.1803C4.1916 16.3222 2.27364 16.8361 1.41561 18.3223C0.557579 19.8084 1.0715 21.7264 2.55764 22.5844C4.04379 23.4425 5.96175 22.9285 6.81978 21.4424C7.67781 19.9562 7.16389 18.0383 5.67774 17.1803Z" fill="black"/>
  <path d="M1.41561 10.4397C2.27364 8.95358 4.1916 8.43966 5.67774 9.29769C7.16389 10.1557 7.67781 12.0737 6.81978 13.5598C5.96175 15.046 4.04379 15.5599 2.55764 14.7019C1.0715 13.8438 0.557579 11.9259 1.41561 10.4397Z" fill="black"/>
  <path d="M21.4424 9.29818C19.9562 8.44015 18.0382 8.95406 17.1802 10.4402C16.3222 11.9264 16.8361 13.8443 18.3223 14.7023C19.8084 15.5604 21.7264 15.0465 22.5844 13.5603C23.4424 12.0742 22.9285 10.1562 21.4424 9.29818Z" fill="black"/>
  <path d="M17.1798 18.3223C18.0378 16.8361 19.9558 16.3222 21.4419 17.1803C22.9281 18.0383 23.442 19.9562 22.5839 21.4424C21.7259 22.9285 19.808 23.4425 18.3218 22.5844C16.8357 21.7264 16.3217 19.8084 17.1798 18.3223Z" fill="black"/>
</svg>