<svg width="81" height="80" viewBox="0 0 81 80" fill="none" xmlns="http://www.w3.org/2000/svg">
<g opacity="0.3">
<path d="M68.2142 10.3106C68.7928 10.8891 68.7928 11.8272 68.2142 12.4057L60.313 20.3069C59.7345 20.8855 58.7965 20.8855 58.2178 20.3069L54.2673 16.3563C53.6887 15.7778 53.6887 14.8397 54.2673 14.2612C54.8458 13.6826 55.7839 13.6826 56.3624 14.2612L59.2655 17.1643L66.1191 10.3106C66.6977 9.73203 67.6357 9.73203 68.2142 10.3106Z" fill="black"/>
<path fill-rule="evenodd" clip-rule="evenodd" d="M43.5725 1.59103C44.5913 0.572306 45.9729 0 47.4136 0H75.0679C76.5086 0 77.8902 0.572306 78.909 1.59103C79.9277 2.60974 80.5 3.99142 80.5 5.43211V25.1852C80.5 26.6259 79.9277 28.0075 78.909 29.0263C77.8902 30.045 76.5086 30.6173 75.0679 30.6173H51.9779L44.5105 38.0846C44.0868 38.5083 43.4496 38.6351 42.896 38.4057C42.3425 38.1765 41.9815 37.6362 41.9815 37.037V5.43211C41.9815 3.99142 42.5538 2.60974 43.5725 1.59103ZM47.4136 2.96296C46.7587 2.96296 46.1307 3.22311 45.6677 3.68616C45.2046 4.1492 44.9445 4.77724 44.9445 5.43211V33.4604L50.3166 28.0882C50.5945 27.8104 50.9713 27.6543 51.3642 27.6543H75.0679C75.7228 27.6543 76.3508 27.3942 76.8139 26.9311C77.2769 26.4681 77.537 25.84 77.537 25.1852V5.43211C77.537 4.77724 77.2769 4.14922 76.8139 3.68616C76.3508 3.22311 75.7228 2.96296 75.0679 2.96296H47.4136Z" fill="black"/>
<path fill-rule="evenodd" clip-rule="evenodd" d="M31.256 28.1481C32.0742 28.1481 32.7374 28.8114 32.7374 29.6296C32.7374 30.4478 32.0742 31.1111 31.256 31.1111H26.3963C25.5696 31.1117 24.7595 31.3429 24.0569 31.7786C23.3543 32.2144 22.7872 32.8374 22.4192 33.5778L22.4173 33.5818L13.269 51.8519H28.6482C28.892 51.8518 29.1322 51.9121 29.3472 52.0271C29.5623 52.1422 29.7456 52.3086 29.8809 52.5116L35.367 60.7407H45.633L51.1191 52.5116C51.2544 52.3086 51.4377 52.1422 51.6528 52.0271C51.8678 51.9121 52.108 51.8518 52.3519 51.8519H67.731L62.1286 40.6633C61.6354 39.6782 62.3516 38.5185 63.4533 38.5185C64.0141 38.5185 64.5269 38.8352 64.778 39.3367L71.4413 52.644C71.5371 52.8258 71.5961 53.0299 71.6086 53.2466C71.6103 53.2754 71.6111 53.3044 71.6111 53.3333V71.1111C71.6112 72.0839 71.4196 73.0471 71.0474 73.9459C70.6752 74.8446 70.1296 75.6612 69.4417 76.3491C68.7538 77.0369 67.9373 77.5826 67.0385 77.9548C66.1398 78.327 65.1765 78.5186 64.2037 78.5185H16.7963C14.8317 78.5185 12.9477 77.7381 11.5585 76.3489C10.1694 74.9598 9.38892 73.0757 9.38892 71.1111V53.3333C9.38892 53.0844 9.45031 52.8499 9.55873 52.644L19.767 32.2572C20.3805 31.0235 21.3259 29.9854 22.497 29.2595C23.6682 28.5336 25.0185 28.1487 26.3963 28.1481H31.256ZM12.3519 54.8148V71.1111C12.3519 72.2899 12.8201 73.4203 13.6536 74.2538C14.4871 75.0873 15.6176 75.5556 16.7963 75.5556H64.2037C65.3825 75.5556 66.5129 75.0873 67.3464 74.2538C68.18 73.4203 68.6482 72.2899 68.6482 71.1111V54.8148H53.1448L47.6587 63.044C47.5234 63.2469 47.3401 63.4133 47.125 63.5284C46.91 63.6435 46.6698 63.7037 46.4259 63.7037H34.5741C34.3302 63.7037 34.0901 63.6435 33.875 63.5284C33.6599 63.4133 33.4766 63.2469 33.3414 63.044L27.8553 54.8148H12.3519Z" fill="black"/>
</g>
</svg>
