<svg width="24" height="24" viewBox="0 0 24 24" fill="none" xmlns="http://www.w3.org/2000/svg">
<path d="M16.5569 3H7.44309C6.89159 3.00031 6.35374 3.1615 5.89141 3.46097C5.43001 3.75984 5.06332 4.18318 4.82716 4.6789L4.82644 4.68042L1.53388 11.549C1.46531 11.6845 1.42667 11.8378 1.42667 12V18C1.42667 18.7819 1.72362 19.5401 2.26511 20.1057C2.80802 20.6728 3.5539 21 4.34133 21H19.6587C20.4461 21 21.192 20.6728 21.7349 20.1057C22.2764 19.5401 22.5733 18.7819 22.5733 18V12C22.5733 11.9866 22.5731 11.9731 22.5725 11.9597C22.5667 11.8124 22.529 11.6732 22.4661 11.549L19.1736 4.68042L19.1726 4.67847C18.9365 4.18295 18.5699 3.75976 18.1086 3.46097C17.6463 3.1615 17.1084 3.00031 16.5569 3ZM19.985 11H15.8293C15.4879 11 15.1701 11.1742 14.9864 11.462L13.3666 14H10.6334L9.01362 11.462C8.82993 11.1742 8.5121 11 8.17067 11H4.01499L6.63121 5.54226L6.6325 5.53958C6.71339 5.36952 6.83514 5.23259 6.97872 5.13959C7.12177 5.04693 7.28257 5.00014 7.44339 5H16.5566C16.7174 5.00014 16.8782 5.04693 17.0213 5.13959C17.1649 5.23259 17.2866 5.36952 17.3675 5.53958L17.3688 5.54226L19.985 11ZM3.42667 13H7.62258L9.24238 15.538C9.42607 15.8258 9.7439 16 10.0853 16H13.9147C14.2561 16 14.5739 15.8258 14.7576 15.538L16.3774 13H20.5733V18C20.5733 18.2789 20.4668 18.5382 20.2902 18.7227C20.115 18.9057 19.8868 19 19.6587 19H4.34133C4.11317 19 3.88504 18.9057 3.70981 18.7227C3.53316 18.5382 3.42667 18.2789 3.42667 18V13Z" fill="black"/>
</svg>
