<svg width="24" height="25" viewBox="0 0 24 25" fill="none" xmlns="http://www.w3.org/2000/svg">
<path d="M16.9957 1.56663C15.4225 1.55296 13.9069 2.15773 12.7753 3.25068L12.765 3.2608L11.045 4.9708C10.6533 5.36018 10.6515 5.99335 11.0408 6.38501C11.4302 6.77667 12.0634 6.77851 12.455 6.38913L14.1696 4.6845C14.9235 3.95887 15.9318 3.55746 16.9783 3.56656C18.0271 3.57567 19.0304 3.99635 19.772 4.73798C20.5136 5.47961 20.9343 6.48286 20.9434 7.53165C20.9525 8.5777 20.5514 9.58557 19.8264 10.3393L16.8329 13.3329C16.4274 13.7385 15.9392 14.0523 15.4018 14.2528C14.8644 14.4533 14.2902 14.5358 13.7181 14.4949C13.146 14.4539 12.5894 14.2903 12.086 14.0153C11.5827 13.7403 11.1443 13.3603 10.8008 12.901C10.47 12.4587 9.84327 12.3684 9.40102 12.6992C8.95877 13.03 8.86843 13.6567 9.19923 14.0989C9.71458 14.7879 10.3721 15.358 11.1271 15.7705C11.8821 16.183 12.717 16.4283 13.5752 16.4897C14.4334 16.5512 15.2947 16.4274 16.1008 16.1267C16.907 15.826 17.639 15.3554 18.2472 14.7469L21.2471 11.7471L21.2593 11.7347C22.3522 10.6031 22.957 9.08745 22.9433 7.51427C22.9297 5.94109 22.2986 4.43621 21.1862 3.32377C20.0738 2.21132 18.5689 1.5803 16.9957 1.56663Z" fill="black"/>
<path d="M10.4248 8.5102C9.56661 8.44874 8.70526 8.57256 7.89915 8.87326C7.0931 9.17395 6.361 9.64458 5.75276 10.253L2.75289 13.2529L2.74071 13.2653C1.64776 14.3969 1.043 15.9125 1.05667 17.4857C1.07034 19.0589 1.70135 20.5637 2.8138 21.6762C3.92625 22.7886 5.43112 23.4196 7.0043 23.4333C8.57748 23.447 10.0931 22.8422 11.2247 21.7493L11.2371 21.7371L12.9471 20.0271C13.3376 19.6366 13.3376 19.0034 12.9471 18.6129C12.5566 18.2223 11.9234 18.2223 11.5329 18.6129L9.82936 20.3164C9.07559 21.0414 8.06773 21.4425 7.02168 21.4334C5.9729 21.4243 4.96965 21.0036 4.22801 20.262C3.48638 19.5203 3.06571 18.5171 3.05659 17.4683C3.0475 16.4222 3.44855 15.4144 4.17359 14.6606L7.16723 11.667C7.57274 11.2613 8.06075 10.9476 8.59816 10.7471C9.13556 10.5467 9.7098 10.4641 10.2819 10.5051C10.854 10.5461 11.4106 10.7096 11.914 10.9846C12.4173 11.2596 12.8557 11.6397 13.1992 12.099C13.53 12.5412 14.1567 12.6316 14.599 12.3007C15.0412 11.9699 15.1316 11.3433 14.8008 10.901C14.2854 10.212 13.6279 9.64198 12.8729 9.22948C12.1179 8.81697 11.283 8.57166 10.4248 8.5102Z" fill="black"/>
</svg>
