<svg width="24" height="24" viewBox="0 0 24 24" fill="none" xmlns="http://www.w3.org/2000/svg">
<path fill-rule="evenodd" clip-rule="evenodd" d="M5 3.99744C4.73412 3.99744 4.47913 4.10306 4.29112 4.29107C4.10312 4.47907 3.9975 4.73406 3.9975 4.99994V18.5918L6.29466 16.2946C6.48173 16.1075 6.73545 16.0024 7 16.0024H19C19.2659 16.0024 19.5209 15.8968 19.7089 15.7088C19.8969 15.5208 20.0025 15.2658 20.0025 14.9999V4.99994C20.0025 4.73406 19.8969 4.47907 19.7089 4.29107C19.5209 4.10306 19.2659 3.99744 19 3.99744H5ZM2.88045 2.88039C3.44259 2.31825 4.20501 2.00244 5 2.00244H19C19.795 2.00244 20.5574 2.31825 21.1196 2.88039C21.6817 3.44253 21.9975 4.20496 21.9975 4.99994V14.9999C21.9975 15.7949 21.6817 16.5574 21.1196 17.1195C20.5574 17.6816 19.795 17.9974 19 17.9974H7.41318L3.70534 21.7053C3.42006 21.9906 2.99101 22.0759 2.61827 21.9215C2.24553 21.7671 2.0025 21.4034 2.0025 20.9999V4.99994C2.0025 4.20496 2.31831 3.44253 2.88045 2.88039ZM6.0025 7.99994C6.0025 7.44904 6.4491 7.00244 7 7.00244H13C13.5509 7.00244 13.9975 7.44904 13.9975 7.99994C13.9975 8.55085 13.5509 8.99744 13 8.99744H7C6.4491 8.99744 6.0025 8.55085 6.0025 7.99994ZM6.0025 11.9999C6.0025 11.449 6.4491 11.0024 7 11.0024H17C17.5509 11.0024 17.9975 11.449 17.9975 11.9999C17.9975 12.5508 17.5509 12.9974 17 12.9974H7C6.4491 12.9974 6.0025 12.5508 6.0025 11.9999Z" fill="black"/>
</svg>
