<svg width="24" height="24" viewBox="0 0 24 24" fill="none" xmlns="http://www.w3.org/2000/svg">
<path d="M2.26862 3.51698C2.85804 2.92756 3.65745 2.59644 4.49101 2.59644H11.6782C12.2291 2.59644 12.6757 3.04303 12.6757 3.59394C12.6757 4.14484 12.2291 4.59144 11.6782 4.59144H4.49101C4.18656 4.59144 3.89458 4.71238 3.6793 4.92765C3.46402 5.14293 3.34308 5.43491 3.34308 5.73936V20.4946L5.93109 17.9066C6.11816 17.7195 6.37188 17.6144 6.63643 17.6144H19.509C19.8134 17.6144 20.1054 17.4935 20.3207 17.2782C20.536 17.0629 20.6569 16.7709 20.6569 16.4665V13.5702C20.6569 13.0193 21.1035 12.5727 21.6544 12.5727C22.2053 12.5727 22.6519 13.0193 22.6519 13.5702V16.4665C22.6519 17.3 22.3208 18.0995 21.7314 18.6889C21.142 19.2783 20.3425 19.6094 19.509 19.6094H7.04961L3.05092 23.6081C2.76564 23.8934 2.33659 23.9787 1.96385 23.8243C1.59111 23.6699 1.34808 23.3062 1.34808 22.9028V5.73936C1.34808 4.90581 1.67921 4.10639 2.26862 3.51698Z" fill="black"/>
<path d="M23.3573 5.15255L16.256 12.2538C15.8664 12.6434 15.2348 12.6434 14.8453 12.2538L11.2947 8.70319C10.9051 8.31364 10.9051 7.68206 11.2947 7.29251C11.6842 6.90296 12.3158 6.90296 12.7053 7.29251L15.5506 10.1378L21.9466 3.74187C22.3361 3.35232 22.9677 3.35232 23.3573 3.74187C23.7468 4.13142 23.7468 4.763 23.3573 5.15255Z" fill="black"/>
</svg>
