<svg xmlns="http://www.w3.org/2000/svg" width="24" height="24" viewBox="0 0 24 24" fill="none">
  <path d="M3 0.998999C2.86545 0.993786 2.73124 1.01579 2.6054 1.06368C2.47955 1.11157 2.36467 1.18438 2.26764 1.27772C2.1706 1.37107 2.09341 1.48305 2.04068 1.60694C1.98795 1.73084 1.96077 1.8641 1.96077 1.99875C1.96077 2.1334 1.98795 2.26666 2.04068 2.39055C2.09341 2.51445 2.1706 2.62642 2.26764 2.71977C2.36467 2.81312 2.47955 2.88593 2.6054 2.93382C2.73124 2.98171 2.86545 3.00371 3 2.9985H21C21.2584 2.98849 21.503 2.87878 21.6823 2.69238C21.8616 2.50599 21.9618 2.25739 21.9618 1.99875C21.9618 1.74011 21.8616 1.49151 21.6823 1.30512C21.503 1.11872 21.2584 1.00901 21 0.998999H3ZM3.4995 6C3.4995 5.448 3.948 4.9995 4.5 4.9995H15C15.2653 4.9995 15.5198 5.10491 15.7075 5.29254C15.8951 5.48017 16.0005 5.73465 16.0005 6C16.0005 6.26535 15.8951 6.51983 15.7075 6.70746C15.5198 6.89509 15.2653 7.0005 15 7.0005H4.5C4.23465 7.0005 3.98017 6.89509 3.79254 6.70746C3.60491 6.51983 3.4995 6.26535 3.4995 6ZM3 9C2.74155 9.01001 2.49702 9.11972 2.31771 9.30612C2.13839 9.49251 2.03823 9.74111 2.03823 9.99975C2.03823 10.2584 2.13839 10.507 2.31771 10.6934C2.49702 10.8798 2.74155 10.9895 3 10.9995H21C21.1345 11.0047 21.2688 10.9827 21.3946 10.9348C21.5204 10.8869 21.6353 10.8141 21.7324 10.7208C21.8294 10.6274 21.9066 10.5154 21.9593 10.3916C22.0121 10.2677 22.0392 10.1344 22.0392 9.99975C22.0392 9.8651 22.0121 9.73184 21.9593 9.60794C21.9066 9.48405 21.8294 9.37207 21.7324 9.27872C21.6353 9.18538 21.5204 9.11257 21.3946 9.06468C21.2688 9.01679 21.1345 8.99479 21 9H3ZM3.4995 14.001C3.4995 13.4475 3.948 13.0005 4.5 13.0005H15C15.2584 13.0105 15.503 13.1202 15.6823 13.3066C15.8616 13.493 15.9618 13.7416 15.9618 14.0002C15.9618 14.2589 15.8616 14.5075 15.6823 14.6939C15.503 14.8803 15.2584 14.99 15 15H4.5C4.23491 15 3.98066 14.8948 3.79307 14.7075C3.60548 14.5202 3.4999 14.2661 3.4995 14.001ZM3.4995 22.002C3.4995 21.45 3.948 21.0015 4.5 21.0015H15C15.2584 21.0115 15.503 21.1212 15.6823 21.3076C15.8616 21.494 15.9618 21.7426 15.9618 22.0012C15.9618 22.2599 15.8616 22.5085 15.6823 22.6949C15.503 22.8813 15.2584 22.991 15 23.001H4.5C4.23491 23.001 3.98066 22.8958 3.79307 22.7085C3.60548 22.5212 3.4999 22.2671 3.4995 22.002ZM3 17.001C2.74155 17.011 2.49702 17.1207 2.31771 17.3071C2.13839 17.4935 2.03823 17.7421 2.03823 18.0007C2.03823 18.2594 2.13839 18.508 2.31771 18.6944C2.49702 18.8808 2.74155 18.9905 3 19.0005H21C21.2584 18.9905 21.503 18.8808 21.6823 18.6944C21.8616 18.508 21.9618 18.2594 21.9618 18.0007C21.9618 17.7421 21.8616 17.4935 21.6823 17.3071C21.503 17.1207 21.2584 17.011 21 17.001H3Z" fill="black"/>
</svg>