<svg width="24" height="24" viewBox="0 0 24 24" fill="none" xmlns="http://www.w3.org/2000/svg">
<path d="M21.5 12C21.5 10.6193 20.3807 9.5 19 9.5C17.6193 9.5 16.5 10.6193 16.5 12C16.5 13.3807 17.6193 14.5 19 14.5C20.3807 14.5 21.5 13.3807 21.5 12Z" fill="black"/>
<path d="M14.5 12C14.5 10.6193 13.3807 9.5 12 9.5C10.6193 9.5 9.50001 10.6193 9.50001 12C9.50001 13.3807 10.6193 14.5 12 14.5C13.3807 14.5 14.5 13.3807 14.5 12Z" fill="black"/>
<path d="M7.5 12C7.5 10.6193 6.38072 9.5 5 9.5C3.61929 9.5 2.5 10.6193 2.5 12C2.5 13.3807 3.61929 14.5 5 14.5C6.38072 14.5 7.5 13.3807 7.5 12Z" fill="black"/>
</svg>
