<svg width="13" height="158" viewBox="0 0 13 158" fill="none" xmlns="http://www.w3.org/2000/svg">
<path opacity="0.3" d="M7.5 1.00378C7.5 0.451499 7.05228 0.0037842 6.5 0.00378418C5.94772 0.00378416 5.5 0.451499 5.5 1.00378L7.5 1.00378ZM6.49999 158.004L12.2735 148.004L0.726491 148.004L6.49999 158.004ZM5.5 3.51981C5.5 4.07209 5.94772 4.51981 6.5 4.51981C7.05228 4.51981 7.5 4.07209 7.5 3.51981L5.5 3.51981ZM7.5 10.5647C7.5 10.0124 7.05228 9.56468 6.5 9.56468C5.94771 9.56468 5.5 10.0124 5.5 10.5647L7.5 10.5647ZM5.5 15.5967C5.5 16.149 5.94771 16.5967 6.5 16.5967C7.05228 16.5967 7.5 16.149 7.5 15.5967L5.5 15.5967ZM7.5 22.6416C7.5 22.0893 7.05228 21.6416 6.5 21.6416C5.94771 21.6416 5.5 22.0893 5.5 22.6416L7.5 22.6416ZM5.5 27.6737C5.5 28.2259 5.94771 28.6737 6.5 28.6737C7.05228 28.6737 7.5 28.2259 7.5 27.6737L5.5 27.6737ZM7.5 34.7185C7.5 34.1662 7.05228 33.7185 6.5 33.7185C5.94771 33.7185 5.5 34.1662 5.5 34.7185L7.5 34.7185ZM5.5 39.7506C5.5 40.3029 5.94771 40.7506 6.5 40.7506C7.05228 40.7506 7.5 40.3029 7.5 39.7506L5.5 39.7506ZM7.5 46.7955C7.5 46.2432 7.05228 45.7955 6.5 45.7955C5.94771 45.7955 5.5 46.2432 5.5 46.7955L7.5 46.7955ZM5.5 51.8275C5.5 52.3798 5.94771 52.8275 6.5 52.8275C7.05228 52.8275 7.5 52.3798 7.5 51.8275L5.5 51.8275ZM7.5 58.8724C7.5 58.3201 7.05228 57.8724 6.5 57.8724C5.94771 57.8724 5.5 58.3201 5.5 58.8724L7.5 58.8724ZM5.5 63.9044C5.5 64.4567 5.94771 64.9044 6.5 64.9044C7.05228 64.9044 7.5 64.4567 7.5 63.9044L5.5 63.9044ZM7.5 70.9493C7.5 70.397 7.05228 69.9493 6.5 69.9493C5.94771 69.9493 5.5 70.397 5.5 70.9493L7.5 70.9493ZM5.5 75.9813C5.5 76.5336 5.94771 76.9813 6.5 76.9813C7.05228 76.9813 7.5 76.5336 7.5 75.9813L5.5 75.9813ZM7.5 83.0262C7.5 82.4739 7.05228 82.0262 6.5 82.0262C5.94771 82.0262 5.5 82.4739 5.5 83.0262L7.5 83.0262ZM5.5 88.0583C5.5 88.6106 5.94771 89.0583 6.5 89.0583C7.05228 89.0583 7.5 88.6106 7.5 88.0583L5.5 88.0583ZM7.5 95.1031C7.5 94.5508 7.05228 94.1031 6.5 94.1031C5.94771 94.1031 5.5 94.5508 5.5 95.1031L7.5 95.1031ZM5.5 100.135C5.5 100.687 5.94771 101.135 6.5 101.135C7.05228 101.135 7.5 100.687 7.5 100.135L5.5 100.135ZM7.5 107.18C7.5 106.628 7.05228 106.18 6.5 106.18C5.94771 106.18 5.5 106.628 5.5 107.18L7.5 107.18ZM5.5 112.212C5.5 112.764 5.94771 113.212 6.5 113.212C7.05228 113.212 7.5 112.764 7.5 112.212L5.5 112.212ZM7.49999 119.257C7.49999 118.705 7.05228 118.257 6.49999 118.257C5.94771 118.257 5.49999 118.705 5.49999 119.257L7.49999 119.257ZM5.49999 124.289C5.49999 124.841 5.94771 125.289 6.49999 125.289C7.05228 125.289 7.49999 124.841 7.49999 124.289L5.49999 124.289ZM7.49999 131.334C7.49999 130.782 7.05228 130.334 6.49999 130.334C5.94771 130.334 5.49999 130.782 5.49999 131.334L7.49999 131.334ZM5.49999 136.366C5.49999 136.918 5.94771 137.366 6.49999 137.366C7.05228 137.366 7.49999 136.918 7.49999 136.366L5.49999 136.366ZM7.49999 143.411C7.49999 142.859 7.05228 142.411 6.49999 142.411C5.94771 142.411 5.49999 142.859 5.49999 143.411L7.49999 143.411ZM5.49999 148.443C5.49999 148.995 5.94771 149.443 6.49999 149.443C7.05228 149.443 7.49999 148.995 7.49999 148.443L5.49999 148.443ZM7.49999 155.488C7.49999 154.935 7.05228 154.488 6.49999 154.488C5.94771 154.488 5.49999 154.935 5.49999 155.488L7.49999 155.488ZM5.5 1.00378L5.5 3.51981L7.5 3.51981L7.5 1.00378L5.5 1.00378ZM5.5 10.5647L5.5 15.5967L7.5 15.5967L7.5 10.5647L5.5 10.5647ZM5.5 22.6416L5.5 27.6737L7.5 27.6737L7.5 22.6416L5.5 22.6416ZM5.5 34.7185L5.5 39.7506L7.5 39.7506L7.5 34.7185L5.5 34.7185ZM5.5 46.7955L5.5 51.8275L7.5 51.8275L7.5 46.7955L5.5 46.7955ZM5.5 58.8724L5.5 63.9044L7.5 63.9044L7.5 58.8724L5.5 58.8724ZM5.5 70.9493L5.5 75.9813L7.5 75.9813L7.5 70.9493L5.5 70.9493ZM5.5 83.0262L5.5 88.0583L7.5 88.0583L7.5 83.0262L5.5 83.0262ZM5.5 95.1031L5.5 100.135L7.5 100.135L7.5 95.1031L5.5 95.1031ZM5.5 107.18L5.5 112.212L7.5 112.212L7.5 107.18L5.5 107.18ZM5.49999 119.257L5.49999 124.289L7.49999 124.289L7.49999 119.257L5.49999 119.257ZM5.49999 131.334L5.49999 136.366L7.49999 136.366L7.49999 131.334L5.49999 131.334ZM5.49999 143.411L5.49999 148.443L7.49999 148.443L7.49999 143.411L5.49999 143.411Z" fill="white"/>
</svg>
