<svg width="125" height="112" viewBox="0 0 125 112" fill="none" xmlns="http://www.w3.org/2000/svg">
    <g opacity="0.3">
        <path fill-rule="evenodd" clip-rule="evenodd" d="M53.9991 2.55655C56.5668 0.685615 59.7183 -0.206703 62.8858 0.0403983C66.0532 0.2875 69.0282 1.65777 71.2747 3.90429C73.5212 6.1508 74.8915 9.12583 75.1386 12.2933C75.3857 15.4607 74.4934 18.6122 72.6225 21.1799C70.7515 23.7477 68.025 25.5627 64.9342 26.2981C62.0303 26.9889 58.9842 26.684 56.2821 25.4419L48.9322 27.9334C48.4528 28.0959 47.9227 27.9722 47.5647 27.6143C47.2068 27.2563 47.0831 26.7262 47.2456 26.2468L49.7371 18.897C48.495 16.1948 48.1901 13.1487 48.8809 10.2448C49.6163 7.15402 51.4313 4.4275 53.9991 2.55655ZM62.6789 2.69234C60.1435 2.49455 57.6209 3.2088 55.5655 4.7064C53.5102 6.20399 52.0573 8.38644 51.4687 10.8605C50.8801 13.3345 51.1945 15.9374 52.3552 18.2001C52.5195 18.5203 52.547 18.8933 52.4315 19.2341L50.6297 24.5493L55.9449 22.7476C56.2857 22.632 56.6587 22.6595 56.9789 22.8238C59.2416 23.9845 61.8445 24.2989 64.3186 23.7103C66.7926 23.1217 68.975 21.6688 70.4726 19.6135C71.9702 17.5582 72.6845 15.0355 72.4867 12.5001C72.2889 9.96477 71.192 7.58341 69.3938 5.78519C67.5956 3.98697 65.2142 2.89013 62.6789 2.69234ZM55.1752 13.3405C55.1752 12.6059 55.7707 12.0105 56.5052 12.0105H56.5185C57.2531 12.0105 57.8485 12.6059 57.8485 13.3405C57.8485 14.075 57.2531 14.6705 56.5185 14.6705H56.5052C55.7707 14.6705 55.1752 14.075 55.1752 13.3405ZM60.5085 13.3405C60.5085 12.6059 61.104 12.0105 61.8385 12.0105H61.8519C62.5864 12.0105 63.1819 12.6059 63.1819 13.3405C63.1819 14.075 62.5864 14.6705 61.8519 14.6705H61.8385C61.104 14.6705 60.5085 14.075 60.5085 13.3405ZM65.8419 13.3405C65.8419 12.6059 66.4373 12.0105 67.1719 12.0105H67.1852C67.9197 12.0105 68.5152 12.6059 68.5152 13.3405C68.5152 14.075 67.9197 14.6705 67.1852 14.6705H67.1719C66.4373 14.6705 65.8419 14.075 65.8419 13.3405Z" fill="white"/>
        <path fill-rule="evenodd" clip-rule="evenodd" d="M21.678 34.5566C19.1103 32.6856 15.9587 31.7933 12.7913 32.0404C9.62387 32.2875 6.64885 33.6578 4.40233 35.9043C2.15582 38.1508 0.785548 41.1258 0.538445 44.2933C0.291344 47.4607 1.18366 50.6122 3.0546 53.18C4.92554 55.7477 7.65207 57.5627 10.7429 58.2981C13.6468 58.9889 16.6928 58.684 19.395 57.4419L26.7449 59.9334C27.2243 60.0959 27.7544 59.9722 28.1123 59.6143C28.4703 59.2563 28.594 58.7262 28.4315 58.2468L25.94 50.897C27.182 48.1948 27.487 45.1487 26.7961 42.2448C26.0608 39.154 24.2457 36.4275 21.678 34.5566ZM12.9982 34.6923C15.5336 34.4945 18.0562 35.2088 20.1115 36.7064C22.1669 38.204 23.6198 40.3864 24.2083 42.8605C24.7969 45.3345 24.4825 47.9374 23.3218 50.2001C23.1576 50.5203 23.1301 50.8933 23.2456 51.2341L25.0474 56.5493L19.7322 54.7476C19.3914 54.632 19.0183 54.6595 18.6981 54.8238C16.4354 55.9845 13.8325 56.2989 11.3585 55.7103C8.88449 55.1217 6.70204 53.6688 5.20445 51.6135C3.70685 49.5582 2.9926 47.0355 3.19039 44.5001C3.38818 41.9648 4.48501 39.5834 6.28324 37.7852C8.08146 35.987 10.4628 34.8901 12.9982 34.6923ZM13.9406 40.2853C13.1309 39.6652 12.1354 39.3243 11.1052 39.3243C10.0008 39.3243 8.93631 39.716 8.09795 40.4235C7.95784 40.4953 7.82821 40.5934 7.71661 40.7174C6.9112 41.6123 6.43506 42.7662 6.45877 43.9994C6.4827 45.2438 7.01332 46.4628 8.03141 47.4809L8.04475 47.4941L12.8447 52.1608C13.3609 52.6626 14.1828 52.6626 14.699 52.1608L19.4366 47.5547C19.9146 47.1906 20.3162 46.7352 20.6178 46.2147C20.9367 45.6643 21.1369 45.0532 21.2054 44.4208C21.2739 43.7884 21.2092 43.1487 21.0155 42.5428C20.8219 41.9369 20.5035 41.3783 20.0809 40.9028C19.6583 40.4274 19.1408 40.0457 18.5618 39.7824C17.9828 39.519 17.3551 39.3798 16.719 39.3737C16.0829 39.3675 15.4526 39.4947 14.8686 39.7469C14.5383 39.8895 14.2269 40.0704 13.9406 40.2853ZM12.443 42.4964L12.7745 42.9385C12.9952 43.2327 13.3278 43.4224 13.6934 43.4625C14.059 43.5027 14.4248 43.3896 14.7041 43.1503L15.1707 42.7503C15.2099 42.7167 15.2471 42.6809 15.2821 42.643C15.4618 42.4485 15.6802 42.2938 15.9232 42.1889C16.1663 42.0839 16.4287 42.031 16.6934 42.0335C16.9582 42.0361 17.2195 42.094 17.4605 42.2037C17.7015 42.3133 17.9169 42.4721 18.0928 42.67C18.2687 42.8679 18.4012 43.1005 18.4818 43.3527C18.5624 43.6049 18.5893 43.8711 18.5608 44.1344C18.5323 44.3976 18.449 44.6519 18.3163 44.881C18.1835 45.1101 18.0043 45.3089 17.7901 45.4645C17.7388 45.5018 17.6902 45.5427 17.6447 45.5869L13.7719 49.3522L9.90621 45.5939C9.32898 45.014 9.12765 44.4355 9.11828 43.9482C9.11012 43.524 9.24592 43.0908 9.52807 42.7015C9.58933 42.6591 9.64784 42.6109 9.70286 42.557C10.0773 42.1899 10.5808 41.9843 11.1052 41.9843C11.6 41.9843 12.0762 42.1674 12.443 42.4964Z" fill="white"/>
        <path fill-rule="evenodd" clip-rule="evenodd" d="M53.9991 49.5566C56.5668 47.6856 59.7183 46.7933 62.8858 47.0404C66.0532 47.2875 69.0282 48.6578 71.2747 50.9043C73.5212 53.1508 74.8915 56.1258 75.1386 59.2933C75.3857 62.4607 74.4934 65.6122 72.6225 68.1799C70.7515 70.7477 68.025 72.5627 64.9342 73.2981C62.0303 73.9889 58.9842 73.684 56.2821 72.4419L48.9322 74.9334C48.4528 75.0959 47.9227 74.9722 47.5647 74.6143C47.2068 74.2563 47.0831 73.7262 47.2456 73.2468L49.7371 65.897C48.495 63.1948 48.1901 60.1487 48.8809 57.2448C49.6163 54.154 51.4313 51.4275 53.9991 49.5566ZM62.6789 49.6923C60.1435 49.4945 57.6209 50.2088 55.5655 51.7064C53.5102 53.204 52.0573 55.3864 51.4687 57.8605C50.8801 60.3345 51.1945 62.9374 52.3552 65.2001C52.5195 65.5203 52.547 65.8933 52.4315 66.2341L50.6297 71.5493L55.9449 69.7476C56.2857 69.632 56.6587 69.6595 56.9789 69.8238C59.2416 70.9845 61.8445 71.2989 64.3186 70.7103C66.7926 70.1217 68.975 68.6688 70.4726 66.6135C71.9702 64.5582 72.6845 62.0355 72.4867 59.5001C72.2889 56.9648 71.192 54.5834 69.3938 52.7852C67.5956 50.987 65.2142 49.8901 62.6789 49.6923ZM62.1833 55.0363C61.5618 54.9297 60.9226 55.0465 60.379 55.366C59.8354 55.6854 59.4224 56.187 59.2132 56.7818C58.9694 57.4748 58.2101 57.8389 57.5172 57.5951C56.8243 57.3514 56.4601 56.592 56.7039 55.8991C57.1216 54.7117 57.9461 53.7105 59.0312 53.0727C60.1164 52.4349 61.3923 52.2018 62.6329 52.4146C63.8736 52.6274 64.9988 53.2724 65.8094 54.2353C66.6198 55.1979 67.0634 56.4162 67.0619 57.6744C67.0616 59.7135 65.5498 61.0603 64.4696 61.7804C63.889 62.1675 63.3178 62.4522 62.897 62.6392C62.6847 62.7335 62.506 62.8051 62.3772 62.8542C62.3127 62.8788 62.2604 62.8978 62.2223 62.9113L62.1761 62.9275L62.1613 62.9326L62.1562 62.9343L62.1541 62.935C62.152 62.9357 62.3385 62.8405 62.1524 62.9356C61.4556 63.1678 60.7024 62.7912 60.4701 62.0944C60.2381 61.3984 60.6135 60.6462 61.3087 60.4129M61.3087 60.4129L61.3106 60.4123L61.3312 60.405C61.3518 60.3977 61.3854 60.3855 61.4303 60.3684C61.5202 60.3342 61.654 60.2808 61.8167 60.2084C62.1459 60.0621 62.5747 59.8468 62.9941 59.5672C63.9138 58.9541 64.4019 58.3011 64.4019 57.6738V57.6718C64.4028 57.0413 64.1806 56.4308 63.7745 55.9484C63.3684 55.466 62.8047 55.1429 62.1833 55.0363M60.5085 67.0071C60.5085 66.2726 61.104 65.6771 61.8385 65.6771H61.8519C62.5864 65.6771 63.1819 66.2726 63.1819 67.0071C63.1819 67.7417 62.5864 68.3372 61.8519 68.3372H61.8385C61.104 68.3372 60.5085 67.7417 60.5085 67.0071Z" fill="white"/>
        <path fill-rule="evenodd" clip-rule="evenodd" d="M117.678 34.5566C115.11 32.6856 111.959 31.7933 108.791 32.0404C105.624 32.2875 102.649 33.6578 100.402 35.9043C98.1558 38.1508 96.7855 41.1258 96.5384 44.2933C96.2913 47.4607 97.1837 50.6122 99.0546 53.18C100.926 55.7477 103.652 57.5627 106.743 58.2981C109.647 58.9889 112.693 58.684 115.395 57.4419L122.745 59.9334C123.224 60.0959 123.754 59.9722 124.112 59.6143C124.47 59.2563 124.594 58.7262 124.431 58.2468L121.94 50.897C123.182 48.1948 123.487 45.1487 122.796 42.2448C122.061 39.154 120.246 36.4275 117.678 34.5566ZM108.998 34.6923C111.534 34.4945 114.056 35.2088 116.112 36.7064C118.167 38.204 119.62 40.3864 120.208 42.8605C120.797 45.3345 120.483 47.9374 119.322 50.2001C119.158 50.5203 119.13 50.8933 119.246 51.2341L121.047 56.5493L115.732 54.7476C115.391 54.632 115.018 54.6595 114.698 54.8238C112.435 55.9845 109.833 56.2989 107.359 55.7103C104.884 55.1217 102.702 53.6688 101.204 51.6135C99.7068 49.5582 98.9926 47.0355 99.1904 44.5001C99.3882 41.9648 100.485 39.5834 102.283 37.7852C104.081 35.987 106.463 34.8901 108.998 34.6923ZM109.839 38.6771C109.104 38.6771 108.509 39.2726 108.509 40.0071V45.3405C108.509 46.075 109.104 46.6705 109.839 46.6705C110.573 46.6705 111.169 46.075 111.169 45.3405V40.0071C111.169 39.2726 110.573 38.6771 109.839 38.6771ZM111.169 50.6738C111.169 49.9393 110.573 49.3438 109.839 49.3438H109.825C109.091 49.3438 108.495 49.9393 108.495 50.6738C108.495 51.4084 109.091 52.0038 109.825 52.0038H109.839C110.573 52.0038 111.169 51.4084 111.169 50.6738Z" fill="white"/>
        <path fill-rule="evenodd" clip-rule="evenodd" d="M28.6493 83.4117C28.8774 82.9561 29.3456 82.6709 29.855 82.6772C30.6841 82.6875 31.5003 82.885 32.2424 83.255C32.9845 83.625 33.6334 84.1579 34.1406 84.8139C34.6478 85.4699 35.0002 86.232 35.1715 87.0434C35.3426 87.8539 35.3285 88.6926 35.1304 89.4969L35.1298 89.4993L34.1966 93.3438H40.2785C40.899 93.3438 41.5109 93.4883 42.0659 93.7658C42.6208 94.0432 43.1036 94.4461 43.4759 94.9425C43.8481 95.4389 44.0997 96.0151 44.2107 96.6255C44.3217 97.2358 44.2891 97.8636 44.1155 98.4591L41.0088 109.126C40.7667 109.956 40.2617 110.686 39.5699 111.204C38.8781 111.723 38.0366 112.004 37.1719 112.004H19.1719C18.1119 112.004 17.0953 111.583 16.3458 110.833C15.5963 110.084 15.1752 109.067 15.1752 108.007V97.3405C15.1752 96.2805 15.5963 95.2639 16.3458 94.5144C17.0953 93.7649 18.1119 93.3438 19.1719 93.3438H22.8512C23.0998 93.3437 23.3435 93.2742 23.5549 93.1431C23.7662 93.0121 23.9368 92.8247 24.0475 92.602L24.0493 92.5983L28.6493 83.4117ZM21.8419 96.0038H19.1719C18.8174 96.0038 18.4774 96.1446 18.2267 96.3953C17.976 96.646 17.8352 96.986 17.8352 97.3405V108.007C17.8352 108.362 17.976 108.702 18.2267 108.952C18.4774 109.203 18.8174 109.344 19.1719 109.344H21.8419V96.0038ZM24.5019 109.344H37.1719C37.4611 109.344 37.7425 109.25 37.9739 109.076C38.2051 108.903 38.3739 108.659 38.4549 108.382L41.5616 97.7152C41.6197 97.516 41.6308 97.3055 41.5936 97.1014C41.5565 96.8972 41.4724 96.7045 41.3479 96.5385C41.2234 96.3725 41.0619 96.2377 40.8763 96.1449C40.6907 96.0521 40.486 96.0038 40.2785 96.0038H32.5052C32.0972 96.0038 31.7119 95.8166 31.4597 95.4959C31.2075 95.1752 31.1165 94.7565 31.2127 94.3601L32.5461 88.8668L32.5473 88.8617C32.65 88.4458 32.6574 88.012 32.5689 87.5928C32.4804 87.1736 32.2983 86.7799 32.0362 86.4409C31.7742 86.102 31.4389 85.8267 31.0555 85.6355C30.9089 85.5624 30.7566 85.5024 30.6006 85.4558L26.4296 93.7857L26.4287 93.7874C26.0978 94.4525 25.5881 95.0122 24.9567 95.4038C24.81 95.4948 24.658 95.5758 24.5019 95.6467V109.344Z" fill="white"/>
        <path fill-rule="evenodd" clip-rule="evenodd" d="M80.7126 86.5479C82.3373 84.9232 84.5409 84.0105 86.8385 84.0105C88.1451 84.0105 89.3353 84.1973 90.4996 84.7044C91.3172 85.0605 92.0808 85.5566 92.8385 86.1973C93.5962 85.5566 94.3598 85.0605 95.1774 84.7044C96.3418 84.1973 97.532 84.0105 98.8385 84.0105C101.136 84.0105 103.34 84.9232 104.964 86.5479C106.589 88.1726 107.502 90.3762 107.502 92.6738C107.502 94.6724 106.781 96.3798 105.803 97.8347C105.771 97.8894 105.735 97.9425 105.694 97.9934C104.905 99.1308 103.966 100.111 103.108 100.952L101.779 102.281L101.779 102.281L97.7797 106.28L97.779 106.281L97.7783 106.282L93.779 110.281C93.2596 110.8 92.4175 110.8 91.8981 110.281L82.5727 100.956C80.5668 99.0155 78.1752 96.3382 78.1752 92.6738C78.1752 90.3762 79.0879 88.1726 80.7126 86.5479ZM96.8385 103.46L95.1123 101.733C94.5929 101.214 93.7508 101.214 93.2314 101.733C92.712 102.253 92.712 103.095 93.2314 103.614L94.9576 105.34L92.8385 107.46L84.4456 99.0667L84.4296 99.0509C82.4371 97.1249 80.8352 95.1378 80.8352 92.6738C80.8352 91.0816 81.4677 89.5547 82.5935 88.4288C83.7194 87.303 85.2463 86.6705 86.8385 86.6705C87.8786 86.6705 88.6884 86.817 89.4374 87.1432C89.91 87.349 90.3907 87.6405 90.9099 88.0549L87.9548 91.0099L87.953 91.0118C87.5584 91.404 87.2452 91.8703 87.0314 92.3838C86.8172 92.8982 86.707 93.4499 86.707 94.0071C86.707 94.5644 86.8172 95.1161 87.0314 95.6304C87.2452 96.1441 87.5585 96.6104 87.9531 97.0027C89.553 98.6008 92.1017 98.6485 93.7797 97.1441L93.7912 97.1336L96.5456 94.6054L96.5481 94.6031C96.9949 94.1989 97.576 93.975 98.1785 93.975C98.7823 93.975 99.3644 94.1997 99.8115 94.6054L99.8162 94.6097L102.851 97.3367C102.366 97.9202 101.82 98.4902 101.241 99.0572L100.839 99.4596L99.1123 97.7334C98.5929 97.214 97.7508 97.214 97.2314 97.7334C96.712 98.2528 96.712 99.0949 97.2314 99.6143L98.9576 101.34L96.8385 103.46ZM104.312 95.0732C104.648 94.3174 104.842 93.5236 104.842 92.6738C104.842 91.0816 104.209 89.5547 103.084 88.4288C101.958 87.303 100.431 86.6705 98.8385 86.6705C97.7984 86.6705 96.9886 86.817 96.2396 87.1432C95.482 87.4732 94.7032 88.0234 93.779 88.9476L89.8323 92.8943L89.8289 92.8977C89.6825 93.043 89.5663 93.2158 89.4871 93.4063C89.4078 93.5967 89.367 93.8009 89.367 94.0071C89.367 94.2134 89.4078 94.4176 89.4871 94.608C89.5663 94.7985 89.6825 94.9713 89.8289 95.1166L89.8323 95.12C90.4176 95.7054 91.3577 95.7384 91.999 95.168L94.7581 92.6355C95.6946 91.7857 96.9139 91.315 98.1785 91.315C99.442 91.315 100.66 91.7849 101.596 92.6332L101.599 92.6355L104.312 95.0732Z" fill="white"/>
    </g>
</svg>
