<svg width="18" height="20" viewBox="0 0 18 20" fill="none" xmlns="http://www.w3.org/2000/svg">
<path fill-rule="evenodd" clip-rule="evenodd" d="M9 1.9975C6.78948 1.9975 4.9975 3.78948 4.9975 6C4.9975 8.21052 6.78948 10.0025 9 10.0025C11.2105 10.0025 13.0025 8.21052 13.0025 6C13.0025 3.78948 11.2105 1.9975 9 1.9975ZM12.6361 10.77C14.0714 9.67415 14.9975 7.94523 14.9975 6C14.9975 2.68767 12.3123 0.00250244 9 0.00250244C5.68767 0.00250244 3.0025 2.68767 3.0025 6C3.0025 7.94523 3.92857 9.67415 5.36389 10.77C4.3572 11.2147 3.43107 11.8445 2.63781 12.6378C0.950451 14.3252 0.00250244 16.6137 0.00250244 19C0.00250244 19.5509 0.449098 19.9975 1 19.9975C1.55091 19.9975 1.9975 19.5509 1.9975 19C1.9975 17.1428 2.73526 15.3617 4.04849 14.0485C5.36171 12.7353 7.14282 11.9975 9 11.9975C10.8572 11.9975 12.6383 12.7353 13.9515 14.0485C15.2647 15.3617 16.0025 17.1428 16.0025 19C16.0025 19.5509 16.4491 19.9975 17 19.9975C17.5509 19.9975 17.9975 19.5509 17.9975 19C17.9975 16.6137 17.0496 14.3252 15.3622 12.6378C14.5689 11.8445 13.6428 11.2147 12.6361 10.77Z" fill="black"/>
</svg>
