<svg
   width="18"
   height="20"
   viewBox="0 0 18 20"
   xmlns="http://www.w3.org/2000/svg">
  <path
     id="path2"
     style="clip-rule:evenodd;fill:#000000;fill-rule:evenodd"
     d="M 9,0.00195313 C 5.68767,0.00195313 3.0019531,2.68767 3.0019531,6 c 0,1.94523 0.9260081,3.6736812 2.3613281,4.769531 -1.00669,0.4447 -1.9313493,1.075841 -2.7246093,1.869141 C 0.95131288,14.326072 0.00195313,16.6137 0.00195313,19 c 0,0.5509 0.44714487,0.998047 0.99804687,0.998047 0.55091,0 0.9980469,-0.447147 0.9980469,-0.998047 0,-1.8572 0.7375512,-3.637972 2.0507812,-4.951172 C 5.3620481,12.735628 7.14282,11.998047 9,11.998047 c 1.8572,0 3.637972,0.737581 4.951172,2.050781 1.3132,1.3132 2.050781,3.093972 2.050781,4.951172 0,0.5509 0.447147,0.998047 0.998047,0.998047 0.5509,0 0.998047,-0.447147 0.998047,-0.998047 0,-2.3863 -0.949319,-4.673928 -2.636719,-6.361328 -0.7933,-0.7933 -1.717909,-1.424441 -2.724609,-1.869141 C 14.072019,9.6736813 14.998047,7.94523 14.998047,6 14.998047,2.68767 12.3123,0.00195313 9,0.00195313 Z M 9,1.9980469 C 11.2105,1.9980469 13.001953,3.78948 13.001953,6 13.001953,8.21052 11.2105,10.001953 9,10.001953 6.78948,10.001953 4.9980469,8.21052 4.9980469,6 4.9980469,3.78948 6.78948,1.9980469 9,1.9980469 Z" />
</svg>
