<svg width="24" height="24" viewBox="0 0 24 24" fill="none" xmlns="http://www.w3.org/2000/svg">
<path d="M7.83 4.11011V4.57511C7.83 4.77209 7.8688 4.96714 7.94418 5.14913C8.01956 5.33112 8.13005 5.49648 8.26934 5.63577C8.55064 5.91707 8.93217 6.07511 9.33 6.07511H9.36L9.12 12.7051C7.59 12.7051 5.13 14.8501 5.13 16.6051H11.145V22.0801L12.12 23.0551L13.095 22.0801V16.5901H19.14C19.14 14.9701 16.605 12.7051 15.105 12.7051L14.88 6.07511C15.2778 6.07511 15.6594 5.91707 15.9407 5.63577C16.222 5.35446 16.38 4.97293 16.38 4.57511V4.12511H7.83V4.11011Z" fill="black"/>
</svg>
