<svg width="24" height="24" viewBox="0 0 24 24" fill="none" xmlns="http://www.w3.org/2000/svg">
<path d="M4.31001 3.77005L21.4429 20.9029C21.7766 21.2366 21.7766 21.7777 21.4429 22.1114C21.1092 22.4451 20.5682 22.4451 20.2345 22.1114L14.2154 16.0923H13.116L13.1171 22.0798L12.0932 23.0551L11.0677 22.0798L11.0689 16.0923H5.06391C5.06391 15.576 5.30446 14.9748 5.67828 14.3833C5.70802 14.3362 5.73861 14.2892 5.76999 14.2423C6.47954 13.1819 7.59295 12.177 8.48542 11.7779L8.64603 10.523L3.10156 4.9785C2.76786 4.6448 2.76786 4.10376 3.10156 3.77005C3.43527 3.43635 3.97631 3.43635 4.31001 3.77005Z" fill="black"/>
<path d="M18.9895 16.0923H18.8774L8.00122 5.21609C7.91452 4.97131 7.86572 4.72539 7.86572 4.51871L7.86572 4.11583L16.2749 4.11583V4.51872C16.2749 4.90491 16.104 5.42811 15.8338 5.82484C15.8247 5.83819 15.8155 5.8514 15.8062 5.86445C15.6157 6.13141 15.3793 6.33428 15.1204 6.38716C15.0772 6.39592 15.0324 6.40071 14.988 6.40071L15.5381 11.778C16.2722 12.0958 17.5139 13.24 18.2908 14.3833L18.3086 14.4097C18.7149 15.0132 18.9895 15.6146 18.9895 16.0923Z" fill="black"/>
</svg>
