<svg xmlns="http://www.w3.org/2000/svg" width="16" height="16" fill="none" viewBox="0 0 16 16">
  <path fill="#000" d="M2.332 6.583C.83 5.905.335 4.43.87 3.263A2.36 2.36 0 0 1 3.994 2.08l.444.185.192-.426A2.36 2.36 0 0 1 7.76.646c1.19.537 1.779 1.955 1.104 3.466l-1.63 3.561a1 1 0 0 1-1.314.498L2.332 6.583Zm.122 7.707c-1.192-.515-1.6-1.669-1.195-2.595a1.858 1.858 0 0 1 2.444-.971l.352.14.145-.338a1.858 1.858 0 0 1 2.45-.98c.942.406 1.424 1.515.913 2.713L6.41 14.891a1 1 0 0 1-1.305.52l-2.651-1.122Zm6.206-4.006c-.755-1.213-.4-2.514.548-3.097a2.046 2.046 0 0 1 2.822.656l.23.348.344-.214a2.046 2.046 0 0 1 2.831.65c.598.96.337 2.266-.878 3.03l-2.78 1.709a1 1 0 0 1-1.37-.318L8.66 10.284Z"/>
</svg>
