<svg
   width="24"
   height="24"
   viewBox="0 0 24 24"
   xmlns="http://www.w3.org/2000/svg">
   <path
      d="M 9.5996094,0 C 4.2976674,0 0,4.2976674 0,9.5996094 c 0,5.3019666 4.2976674,9.5996096 9.5996094,9.5996096 2.2184436,0 4.2611966,-0.752023 5.8867186,-2.015625 l 6.464844,6.464843 c 0.4686,0.4686 1.228664,0.468601 1.697265,0 0.4686,-0.468601 0.468601,-1.228665 0,-1.697265 L 17.183594,15.486328 C 18.447196,13.860806 19.199219,11.818053 19.199219,9.5996094 19.199219,4.2976674 14.901576,0 9.5996094,0 Z m 0,2.4003906 c 3.9764456,0 7.2011716,3.222762 7.2011716,7.1992188 0,3.9764456 -3.224726,7.2011716 -7.2011716,7.2011716 -3.9764568,0 -7.1992188,-3.224726 -7.1992188,-7.2011716 0,-3.9764568 3.222762,-7.1992188 7.1992188,-7.1992188 z" />
</svg>