<svg xmlns="http://www.w3.org/2000/svg" width="24" height="24" fill="none" viewBox="0 0 24 24">
  <g fill="#000">
    <path d="M10.002 7h.01a1 1 0 0 1 0 2h-.01a1 1 0 1 1 0-2Zm3.961 1a1 1 0 0 1 1-1h.01a1 1 0 1 1 0 2h-.01a1 1 0 0 1-1-1Zm1.423 4.573-.001.002-.001.002-.003.003-.005.008-.015.02a3.08 3.08 0 0 1-.187.224 3.69 3.69 0 0 1-.525.472 3.48 3.48 0 0 1-2.083.696c-.88 0-1.582-.366-2.03-.686a4.262 4.262 0 0 1-.681-.608 2.934 2.934 0 0 1-.068-.08l-.001-.001a1 1 0 0 1 1.556-1.257l.01.012.065.07c.064.063.16.15.28.236.252.18.55.314.87.314.38 0 .676-.144.892-.303a1.712 1.712 0 0 0 .291-.275l.005-.006a1 1 0 0 1 1.63 1.157Zm0 0c-.106-.073-.096-.086 0 0Z"/>
    <path d="M1.879 2.879A3 3 0 0 1 4 2h13a3 3 0 0 1 3 3v11h1a2 2 0 0 1 2 2v1a3 3 0 0 1-3 3H8a3 3 0 0 1-3-3V9H3a2 2 0 0 1-2-2V5a3 3 0 0 1 .879-2.121Zm15.828 1.414A1 1 0 0 0 17 4H6.828A3 3 0 0 1 7 5v14a1 1 0 1 0 2 0v-1a2 2 0 0 1 2-2h7V5a1 1 0 0 0-.293-.707ZM11 18v1a3 3 0 0 1-.172 1H20a1 1 0 0 0 1-1v-1H11ZM3.293 4.293A1 1 0 0 0 3 5v2h2V5a1 1 0 0 0-1.707-.707Z"/>
  </g>
</svg>
