<svg width="24" height="24" viewBox="0 0 24 24" fill="none" xmlns="http://www.w3.org/2000/svg">
<path fill-rule="evenodd" clip-rule="evenodd" d="M12 8.33337C9.975 8.33337 8.33337 9.975 8.33337 12C8.33337 14.0251 9.975 15.6667 12 15.6667C14.0251 15.6667 15.6667 14.0251 15.6667 12C15.6667 9.975 14.0251 8.33337 12 8.33337ZM10.3334 12C10.3334 11.0796 11.0796 10.3334 12 10.3334C12.9205 10.3334 13.6667 11.0796 13.6667 12C13.6667 12.9205 12.9205 13.6667 12 13.6667C11.0796 13.6667 10.3334 12.9205 10.3334 12Z" fill="black"/>
<path fill-rule="evenodd" clip-rule="evenodd" d="M20.0907 15.3129L19.1758 14.9091L20.0949 15.3031C20.141 15.1955 20.2176 15.1038 20.3151 15.0392C20.4122 14.9749 20.526 14.9402 20.6424 14.9394H20.7273C21.5069 14.9394 22.2545 14.6297 22.8058 14.0785C23.357 13.5273 23.6667 12.7796 23.6667 12C23.6667 11.2205 23.357 10.4728 22.8058 9.92158C22.2545 9.37033 21.5069 9.06065 20.7273 9.06065H20.5649C20.4484 9.05989 20.3347 9.02523 20.2376 8.96091C20.1737 8.91864 20.1189 8.86478 20.0757 8.80247C20.0615 8.7364 20.0405 8.67177 20.0131 8.60961C19.9647 8.49993 19.9502 8.37827 19.9716 8.2603C19.9928 8.14371 20.048 8.03601 20.1302 7.95078L20.1835 7.89745C20.4566 7.62454 20.6733 7.3005 20.8211 6.94384C20.9691 6.587 21.0452 6.20451 21.0452 5.81822C21.0452 5.43194 20.9691 5.04945 20.8211 4.69261C20.6732 4.33577 20.4564 4.01159 20.1831 3.7386C19.9103 3.46568 19.5864 3.24915 19.2299 3.10136C18.8731 2.95344 18.4906 2.8773 18.1043 2.8773C17.718 2.8773 17.3355 2.95344 16.9787 3.10136C16.622 3.24922 16.2976 3.46628 16.0247 3.73939L15.9717 3.79235C15.8865 3.87456 15.7788 3.92974 15.6622 3.95088C15.5442 3.97227 15.4226 3.95777 15.3129 3.90937L15.3031 3.90514C15.1955 3.85905 15.1038 3.78251 15.0392 3.68495C14.9749 3.58784 14.9402 3.47411 14.9394 3.35766V3.27277C14.9394 2.49319 14.6297 1.74555 14.0785 1.1943C13.5273 0.643059 12.7796 0.333374 12 0.333374C11.2205 0.333374 10.4728 0.643059 9.92158 1.1943C9.37033 1.74555 9.06065 2.49319 9.06065 3.27277V3.43517C9.05989 3.55164 9.02523 3.66539 8.96091 3.76252C8.91864 3.82634 8.86478 3.88116 8.80247 3.92435C8.73641 3.93861 8.67178 3.95956 8.60961 3.987C8.49993 4.0354 8.37827 4.04984 8.2603 4.02845C8.14371 4.00731 8.03603 3.95213 7.95079 3.86991L7.89784 3.81696C7.62485 3.54367 7.30067 3.32686 6.94384 3.17894C6.587 3.03102 6.2045 2.95488 5.81822 2.95488C5.43194 2.95488 5.04945 3.03102 4.69261 3.17894C4.33595 3.32679 4.0119 3.54346 3.73899 3.81657C3.46589 4.08948 3.24922 4.41352 3.10136 4.77019C2.95344 5.12702 2.8773 5.50952 2.8773 5.8958C2.8773 6.28208 2.95344 6.66457 3.10136 7.02141C3.24929 7.37825 3.46609 7.70243 3.73939 7.97542L3.79233 8.02837C3.87456 8.1136 3.92974 8.22129 3.95088 8.33788C3.97227 8.45584 3.95783 8.57751 3.90942 8.68719C3.90091 8.70646 3.89302 8.726 3.88575 8.74577C3.84419 8.85876 3.7696 8.95664 3.67167 9.02668C3.57616 9.095 3.46276 9.13374 3.34554 9.13822H3.27277C2.49319 9.13822 1.74555 9.44791 1.1943 9.99915C0.643059 10.5504 0.333374 11.298 0.333374 12.0776C0.333374 12.8572 0.643059 13.6048 1.1943 14.1561C1.74555 14.7073 2.49319 15.017 3.27277 15.017H3.43524C3.55169 15.0178 3.66541 15.0524 3.76252 15.1168C3.86009 15.1814 3.93657 15.2731 3.98267 15.3807L3.987 15.3905C4.0354 15.5002 4.04984 15.6218 4.02845 15.7398C4.00731 15.8564 3.95214 15.964 3.86992 16.0493L3.81657 16.1026C3.54346 16.3755 3.32679 16.6996 3.17894 17.0562C3.03102 17.4131 2.95488 17.7956 2.95488 18.1819C2.95488 18.5681 3.03102 18.9506 3.17894 19.3075C3.32672 19.664 3.54325 19.9879 3.81618 20.2607C4.08917 20.534 4.41335 20.7508 4.77019 20.8987C5.12702 21.0466 5.50952 21.1228 5.8958 21.1228C6.28208 21.1228 6.66458 21.0466 7.02141 20.8987C7.37808 20.7509 7.70251 20.5338 7.97542 20.2607L8.02836 20.2078C8.11359 20.1255 8.22129 20.0703 8.33788 20.0492C8.45584 20.0278 8.57751 20.0423 8.68719 20.0907C8.70646 20.0992 8.726 20.1071 8.74577 20.1143C8.85876 20.1559 8.95664 20.2305 9.02668 20.3284C9.095 20.4239 9.13374 20.5373 9.13822 20.6545V20.7273C9.13822 21.5069 9.44791 22.2545 9.99915 22.8058C10.5504 23.357 11.298 23.6667 12.0776 23.6667C12.8572 23.6667 13.6048 23.357 14.1561 22.8058C14.7073 22.2545 15.017 21.5069 15.017 20.7273V20.5648C15.0178 20.4484 15.0524 20.3347 15.1168 20.2376C15.1814 20.14 15.2731 20.0635 15.3807 20.0174L15.3905 20.0131C15.5002 19.9647 15.6218 19.9502 15.7398 19.9716C15.8564 19.9928 15.9641 20.048 16.0493 20.1302L16.1022 20.1831C16.3752 20.4564 16.6994 20.6732 17.0562 20.8211C17.4131 20.9691 17.7956 21.0452 18.1819 21.0452C18.5681 21.0452 18.9506 20.9691 19.3075 20.8211C19.6641 20.6733 19.9882 20.4566 20.2611 20.1835C20.5342 19.9106 20.7509 19.5866 20.8987 19.2299C21.0466 18.8731 21.1228 18.4906 21.1228 18.1043C21.1228 17.718 21.0466 17.3355 20.8987 16.9787C20.7508 16.6218 20.534 16.2977 20.2607 16.0247L20.2078 15.9718C20.1255 15.8865 20.0704 15.7788 20.0492 15.6622C20.0278 15.5442 20.0423 15.4226 20.0907 15.3129ZM11.3358 2.60852C11.512 2.43235 11.7509 2.33337 12 2.33337C12.2492 2.33337 12.4881 2.43235 12.6643 2.60852C12.8405 2.78469 12.9394 3.02363 12.9394 3.27277V3.36004L12.9394 3.36403C12.9415 3.87109 13.0917 4.36649 13.3717 4.78925C13.6507 5.21051 14.0463 5.54133 14.5103 5.7413C14.9843 5.94933 15.5096 6.01116 16.019 5.91879C16.5302 5.82611 17.0019 5.58246 17.3733 5.21919L17.4397 5.15281C17.5269 5.06547 17.6305 4.99619 17.7446 4.94891C17.8586 4.90164 17.9808 4.8773 18.1043 4.8773C18.2277 4.8773 18.35 4.90164 18.464 4.94891C18.5781 4.99618 18.6817 5.06547 18.7689 5.15281L18.7697 5.1536C18.857 5.24085 18.9263 5.34445 18.9736 5.45849C19.0209 5.57253 19.0452 5.69477 19.0452 5.81822C19.0452 5.94167 19.0209 6.06391 18.9736 6.17795C18.9263 6.29199 18.8566 6.39599 18.7693 6.48324L18.7111 6.54138L18.7034 6.54926C18.3401 6.92063 18.0964 7.39232 18.0037 7.90348C17.9234 8.34624 17.9596 8.80104 18.1071 9.2237C18.1191 9.31342 18.1433 9.4013 18.1791 9.48488C18.3788 9.95094 18.7105 10.3484 19.1333 10.6284C19.556 10.9084 20.0514 11.0586 20.5585 11.0606L20.5625 11.0606H20.7273C20.9765 11.0606 21.2154 11.1596 21.3916 11.3358C21.5677 11.512 21.6667 11.7509 21.6667 12C21.6667 12.2492 21.5677 12.4881 21.3916 12.6643C21.2154 12.8405 20.9765 12.9394 20.7273 12.9394L20.64 12.9394L20.6361 12.9394C20.129 12.9415 19.6336 13.0917 19.2108 13.3717C18.7896 13.6506 18.4588 14.0463 18.2588 14.5101C18.0508 14.9842 17.9889 15.5096 18.0813 16.019C18.174 16.5302 18.4176 17.0019 18.7809 17.3733L18.8473 17.4397C18.9346 17.5269 19.0039 17.6305 19.0512 17.7446C19.0984 17.8586 19.1228 17.9808 19.1228 18.1043C19.1228 18.2277 19.0984 18.35 19.0512 18.464C19.0039 18.5781 18.9346 18.6817 18.8473 18.7689L18.8465 18.7697C18.7592 18.857 18.6556 18.9263 18.5416 18.9736C18.4275 19.0209 18.3053 19.0452 18.1819 19.0452C18.0584 19.0452 17.9362 19.0209 17.8221 18.9736C17.7081 18.9263 17.6041 18.8566 17.5168 18.7693L17.4587 18.7111L17.4508 18.7034C17.0794 18.3401 16.6078 18.0964 16.0966 18.0037C15.5871 17.9113 15.0617 17.9732 14.5877 18.1813C14.1238 18.3812 13.7282 18.712 13.4493 19.1333C13.1693 19.556 13.019 20.0514 13.017 20.5585L13.017 20.5625V20.7273C13.017 20.9765 12.918 21.2154 12.7419 21.3916C12.5657 21.5677 12.3268 21.6667 12.0776 21.6667C11.8285 21.6667 11.5895 21.5677 11.4134 21.3916C11.2372 21.2154 11.1382 20.9765 11.1382 20.7273V20.64L11.1379 20.6167C11.1257 20.0951 10.9569 19.5893 10.6534 19.1649C10.356 18.7491 9.94286 18.4304 9.46572 18.2483C8.99805 18.0487 8.48185 17.9905 7.98106 18.0813C7.46989 18.174 6.99817 18.4176 6.62679 18.7809L6.56042 18.8473C6.47318 18.9346 6.36957 19.0039 6.25553 19.0512C6.14149 19.0984 6.01925 19.1228 5.8958 19.1228C5.77235 19.1228 5.65011 19.0984 5.53607 19.0512C5.42202 19.0039 5.31842 18.9346 5.23118 18.8473L5.23039 18.8465C5.14305 18.7592 5.07376 18.6556 5.02649 18.5416C4.97921 18.4276 4.95488 18.3053 4.95488 18.1819C4.95488 18.0584 4.97921 17.9362 5.02649 17.8221C5.07376 17.7081 5.14344 17.6041 5.23078 17.5168L5.28901 17.4587L5.29672 17.4508C5.65999 17.0794 5.90368 16.6078 5.99637 16.0966C6.08873 15.5872 6.02691 15.0618 5.81887 14.5878C5.6189 14.1239 5.28809 13.7282 4.86682 13.4493C4.44406 13.1693 3.94866 13.019 3.44161 13.017H3.27277C3.02363 13.017 2.78469 12.918 2.60852 12.7419C2.43235 12.5657 2.33337 12.3268 2.33337 12.0776C2.33337 11.8285 2.43235 11.5895 2.60852 11.4134C2.78469 11.2372 3.02363 11.1382 3.27277 11.1382H3.36004L3.38343 11.1379C3.90499 11.1257 4.41083 10.9569 4.83517 10.6534C5.25094 10.356 5.56963 9.94286 5.75173 9.46572C5.95138 8.99806 6.00959 8.48186 5.91879 7.98106C5.82611 7.46989 5.58246 6.99817 5.21919 6.62679L5.15281 6.56042C5.06547 6.47318 4.99618 6.36957 4.94891 6.25553C4.90164 6.14149 4.8773 6.01925 4.8773 5.8958C4.8773 5.77235 4.90164 5.65011 4.94891 5.53607C4.99618 5.42203 5.06547 5.31842 5.15281 5.23118L5.1536 5.23039C5.24085 5.14305 5.34445 5.07376 5.45849 5.02649C5.57253 4.97921 5.69477 4.95488 5.81822 4.95488C5.94167 4.95488 6.06391 4.97921 6.17795 5.02649C6.292 5.07376 6.39599 5.14344 6.48324 5.23078L6.54138 5.28901L6.54926 5.29672C6.92063 5.65999 7.39232 5.90368 7.90348 5.99637C8.34624 6.07665 8.80104 6.04045 9.22369 5.89301C9.31342 5.88099 9.4013 5.85682 9.48488 5.821C9.95094 5.62125 10.3484 5.28958 10.6284 4.86682C10.9084 4.44406 11.0586 3.94866 11.0606 3.44161V3.27277C11.0606 3.02363 11.1596 2.78469 11.3358 2.60852Z" fill="black"/>
</svg>
