<svg width="24" height="24" viewBox="0 0 24 24" fill="none" xmlns="http://www.w3.org/2000/svg">
<path d="M15.1581 7.81488L9.85035 10.9124C9.94784 11.2582 10 11.623 10 12C10 12.3768 9.94789 12.7415 9.85049 13.0872L15.1613 16.1819C15.8859 15.452 16.8902 15 18 15C20.2091 15 22 16.7909 22 19C22 21.2091 20.2091 23 18 23C15.7909 23 14 21.2091 14 19C14 18.6214 14.0526 18.2551 14.1509 17.9079L8.84231 14.8145C8.11738 15.5465 7.11165 16 6 16C3.79086 16 2 14.2091 2 12C2 9.79086 3.79086 8 6 8C7.11147 8 8.11707 8.45333 8.84197 9.18518L14.1497 6.08772C14.0522 5.74188 14 5.37703 14 5C14 2.79086 15.7909 1 18 1C20.2091 1 22 2.79086 22 5C22 7.20914 20.2091 9 18 9C16.8886 9 15.883 8.5467 15.1581 7.81488ZM18 3C16.8954 3 16 3.89543 16 5C16 5.34742 16.0886 5.67416 16.2444 5.95885C16.2545 5.97421 16.2643 5.98994 16.2737 6.00602C16.283 6.02198 16.2918 6.03809 16.3002 6.05434C16.653 6.62205 17.2824 7 18 7C19.1046 7 20 6.10457 20 5C20 3.89543 19.1046 3 18 3ZM7.69956 10.9452C7.34663 10.3778 6.71743 10 6 10C4.89543 10 4 10.8954 4 12C4 13.1046 4.89543 14 6 14C6.71763 14 7.34698 13.622 7.69985 13.0543C7.70809 13.0383 7.7168 13.0223 7.72599 13.0066C7.73548 12.9903 7.74535 12.9744 7.7556 12.9588C7.91141 12.6742 8 12.3474 8 12C8 11.6528 7.91153 11.3263 7.75591 11.0417C7.74567 11.0262 7.7358 11.0103 7.72631 10.9941C7.71689 10.9779 7.70798 10.9616 7.69956 10.9452ZM16 19C16 20.1046 16.8954 21 18 21C19.1046 21 20 20.1046 20 19C20 17.8954 19.1046 17 18 17C17.3072 17 16.6967 17.3523 16.3378 17.8874C16.3221 17.9234 16.3042 17.9588 16.284 17.9935C16.2629 18.0297 16.2399 18.0641 16.2152 18.0966C16.0776 18.368 16 18.6749 16 19Z" fill="black"/>
</svg>
