<svg width="24" height="24" viewBox="0 0 24 24" fill="none" xmlns="http://www.w3.org/2000/svg">
<path d="M12 1.49001C12.3806 1.49001 12.7282 1.70608 12.8967 2.04738L15.7543 7.83647L22.1446 8.77052C22.5212 8.82556 22.8339 9.08956 22.9512 9.45157C23.0686 9.81358 22.9704 10.2108 22.6977 10.4764L18.0745 14.9794L19.1656 21.341C19.23 21.7161 19.0757 22.0953 18.7677 22.3191C18.4598 22.5428 18.0515 22.5723 17.7146 22.3951L12 19.3899L6.28545 22.3951C5.94854 22.5723 5.54024 22.5428 5.23227 22.3191C4.92429 22.0953 4.77004 21.7161 4.83439 21.341L5.92548 14.9794L1.30227 10.4764C1.02965 10.2108 0.931376 9.81358 1.04875 9.45157C1.16613 9.08956 1.47881 8.82556 1.85537 8.77052L8.24574 7.83647L11.1033 2.04738C11.2718 1.70608 11.6194 1.49001 12 1.49001ZM12 4.74926L9.80671 9.19263C9.66117 9.48748 9.37998 9.69193 9.05463 9.73949L4.14841 10.4566L7.69773 13.9136C7.93361 14.1434 8.04127 14.4745 7.98561 14.799L7.14818 19.6817L11.5346 17.3749C11.8259 17.2217 12.1741 17.2217 12.4655 17.3749L16.8518 19.6817L16.0144 14.799C15.9587 14.4745 16.0664 14.1434 16.3023 13.9136L19.8516 10.4566L14.9454 9.73949C14.62 9.69193 14.3388 9.48748 14.1933 9.19263L12 4.74926Z" fill="black"/>
</svg>
