<svg width="17" height="16" viewBox="0 0 17 16" fill="none" xmlns="http://www.w3.org/2000/svg">
<g id="icons/16/star-filled" opacity="0.5">
<path id="Union" d="M9.08966 0.899685C8.96617 0.654635 8.71479 0.5 8.43994 0.5C8.16509 0.5 7.91372 0.654635 7.79022 0.899685L5.71356 5.0203L1.06396 5.68594C0.788437 5.72539 0.559635 5.91832 0.474672 6.18285C0.389709 6.44738 0.463489 6.73711 0.664698 6.92905L4.02032 10.1303L3.229 14.6492C3.18144 14.9208 3.29217 15.1958 3.51479 15.3591C3.73741 15.5223 4.03348 15.5456 4.27896 15.4192L8.43994 13.2759L12.6009 15.4192C12.8464 15.5456 13.1425 15.5223 13.3651 15.3591C13.5877 15.1958 13.6984 14.9208 13.6509 14.6492L12.8596 10.1303L16.2152 6.92905C16.4164 6.73711 16.4902 6.44738 16.4052 6.18285C16.3202 5.91832 16.0914 5.72539 15.8159 5.68594L11.1663 5.0203L9.08966 0.899685Z" fill="#D2A400"/>
</g>
</svg>
