<svg width="24" height="24" viewBox="0 0 24 24" fill="none" xmlns="http://www.w3.org/2000/svg">
<path fill-rule="evenodd" clip-rule="evenodd" d="M11.2788 14.675C11.9843 13.8766 12.9697 13.3999 14.0276 13.3999H19.6828C20.7407 13.3999 21.7261 13.8766 22.4316 14.675C23.1336 15.4694 23.5105 16.5232 23.5105 17.5999V19.1999C23.5105 19.7522 23.0628 20.1999 22.5105 20.1999C21.9582 20.1999 21.5105 19.7522 21.5105 19.1999V17.5999C21.5105 16.9792 21.2915 16.4051 20.9329 15.9993C20.5779 15.5975 20.1248 15.3999 19.6828 15.3999H14.0276C13.5856 15.3999 13.1325 15.5975 12.7775 15.9993C12.4189 16.4051 12.2 16.9792 12.2 17.5999V19.1999C12.2 19.7522 11.7522 20.1999 11.2 20.1999C10.6477 20.1999 10.2 19.7522 10.2 19.1999V17.5999C10.2 16.5232 10.5768 15.4694 11.2788 14.675Z" fill="black"/>
<path fill-rule="evenodd" clip-rule="evenodd" d="M16.7999 5.8C15.5849 5.8 14.5999 6.78497 14.5999 8C14.5999 9.21503 15.5849 10.2 16.7999 10.2C18.0149 10.2 18.9999 9.21503 18.9999 8C18.9999 6.78497 18.0149 5.8 16.7999 5.8ZM12.5999 8C12.5999 5.6804 14.4803 3.8 16.7999 3.8C19.1195 3.8 20.9999 5.6804 20.9999 8C20.9999 10.3196 19.1195 12.2 16.7999 12.2C14.4803 12.2 12.5999 10.3196 12.5999 8Z" fill="black"/>
<path fill-rule="evenodd" clip-rule="evenodd" d="M5.16832 14.2537C5.03025 13.7189 4.48482 13.3973 3.95007 13.5354C3.04904 13.7681 2.25078 14.2934 1.68064 15.0288C1.1105 15.7643 0.800768 16.6683 0.800074 17.5989L0.800073 19.1997C0.800073 19.7519 1.24779 20.1997 1.80007 20.1997C2.35236 20.1997 2.80007 19.7519 2.80007 19.1997V17.6001C2.8005 17.1128 2.96274 16.6394 3.26132 16.2542C3.55997 15.8689 3.9781 15.5938 4.45007 15.4719C4.98482 15.3338 5.30639 14.7884 5.16832 14.2537Z" fill="black"/>
<path fill-rule="evenodd" clip-rule="evenodd" d="M7.36865 4.65567C7.23166 4.12065 6.68689 3.79797 6.15186 3.93496C5.24843 4.16628 4.44767 4.6917 3.87584 5.42839C3.30401 6.16508 2.99363 7.07113 2.99363 8.00371C2.99363 8.93629 3.30401 9.84235 3.87584 10.579C4.44767 11.3157 5.24843 11.8411 6.15186 12.0725C6.68689 12.2094 7.23166 11.8868 7.36865 11.3518C7.50564 10.8167 7.18297 10.2719 6.64794 10.135C6.17471 10.0138 5.75527 9.73858 5.45574 9.35269C5.15621 8.9668 4.99363 8.4922 4.99363 8.00371C4.99363 7.51522 5.15621 7.04062 5.45574 6.65473C5.75527 6.26885 6.17471 5.99363 6.64794 5.87246C7.18297 5.73547 7.50564 5.1907 7.36865 4.65567Z" fill="black"/>
<path fill-rule="evenodd" clip-rule="evenodd" d="M9.96837 14.2537C9.8303 13.7189 9.28487 13.3973 8.75012 13.5354C7.84909 13.7681 7.05083 14.2934 6.48069 15.0288C5.91055 15.7643 5.60082 16.6683 5.60012 17.5989L5.60012 19.1997C5.60012 19.7519 6.04784 20.1997 6.60012 20.1997C7.15241 20.1997 7.60012 19.7519 7.60012 19.1997V17.6001C7.60055 17.1128 7.76279 16.6394 8.06137 16.2542C8.36002 15.8689 8.77815 15.5938 9.25012 15.4719C9.78487 15.3338 10.1064 14.7884 9.96837 14.2537Z" fill="black"/>
<path fill-rule="evenodd" clip-rule="evenodd" d="M12.1687 4.65577C12.0317 4.12074 11.4869 3.79807 10.9519 3.93506C10.0485 4.16637 9.24772 4.69179 8.67589 5.42848C8.10406 6.16517 7.79368 7.07123 7.79368 8.00381C7.79368 8.93639 8.10406 9.84244 8.67589 10.5791C9.24772 11.3158 10.0485 11.8412 10.9519 12.0726C11.4869 12.2095 12.0317 11.8869 12.1687 11.3518C12.3057 10.8168 11.983 10.272 11.448 10.1351C10.9748 10.0139 10.5553 9.73867 10.2558 9.35279C9.95626 8.9669 9.79368 8.4923 9.79368 8.00381C9.79368 7.51532 9.95626 7.04071 10.2558 6.65483C10.5553 6.26894 10.9748 5.99372 11.448 5.87256C11.983 5.73557 12.3057 5.1908 12.1687 4.65577Z" fill="black"/>
</svg>
