<svg width="44" height="42" viewBox="0 0 44 42" fill="none" xmlns="http://www.w3.org/2000/svg">
<g opacity="0.5">
<path d="M31.5 21C31.5 19.6193 30.3807 18.5 29 18.5C27.6193 18.5 26.5 19.6193 26.5 21C26.5 22.3807 27.6193 23.5 29 23.5C30.3807 23.5 31.5 22.3807 31.5 21Z" fill="black"/>
<path d="M24.5 21C24.5 19.6193 23.3807 18.5 22 18.5C20.6193 18.5 19.5 19.6193 19.5 21C19.5 22.3807 20.6193 23.5 22 23.5C23.3807 23.5 24.5 22.3807 24.5 21Z" fill="black"/>
<path d="M17.5 21C17.5 19.6193 16.3807 18.5 15 18.5C13.6193 18.5 12.5 19.6193 12.5 21C12.5 22.3807 13.6193 23.5 15 23.5C16.3807 23.5 17.5 22.3807 17.5 21Z" fill="black"/>
</g>
</svg>
