<svg width="24" height="24" viewBox="0 0 24 24" fill="none" xmlns="http://www.w3.org/2000/svg">
<path d="M10 10.0027C10.5509 10.0027 10.9975 10.4493 10.9975 11.0002V17.0002C10.9975 17.5511 10.5509 17.9977 10 17.9977C9.4491 17.9977 9.0025 17.5511 9.0025 17.0002V11.0002C9.0025 10.4493 9.4491 10.0027 10 10.0027Z" fill="black"/>
<path d="M14.9975 11.0002V17.0002C14.9975 17.5511 14.5509 17.9977 14 17.9977C13.4491 17.9977 13.0025 17.5511 13.0025 17.0002V11.0002C13.0025 10.4493 13.4491 10.0027 14 10.0027C14.5509 10.0027 14.9975 10.4493 14.9975 11.0002Z" fill="black"/>
<path d="M7.0025 5.00244V4.00019C7.0025 3.17577 7.40467 2.43484 7.91966 1.91985C8.43466 1.40485 9.17558 1.00269 10 1.00269H14C14.8244 1.00269 15.5653 1.40485 16.0803 1.91985C16.5953 2.43484 16.9975 3.17577 16.9975 4.00019V5.00244H21C21.5509 5.00244 21.9975 5.44904 21.9975 5.99994C21.9975 6.55085 21.5509 6.99744 21 6.99744H19.9975V19.9999C19.9975 20.8244 19.5953 21.5653 19.0803 22.0803C18.5653 22.5953 17.8244 22.9974 17 22.9974H7C6.17558 22.9974 5.43466 22.5953 4.91966 22.0803C4.40467 21.5653 4.0025 20.8244 4.0025 19.9999V6.99744H3C2.4491 6.99744 2.0025 6.55085 2.0025 5.99994C2.0025 5.44904 2.4491 5.00244 3 5.00244H7.0025ZM8.9975 4.00019V5.00244H15.0025V4.00019C15.0025 3.8246 14.9047 3.56553 14.6697 3.33052C14.4347 3.09552 14.1756 2.99769 14 2.99769H10C9.82442 2.99769 9.56534 3.09552 9.33034 3.33052C9.09533 3.56553 8.9975 3.8246 8.9975 4.00019ZM7.9777 6.99744H5.9975V19.9999C5.9975 20.1755 6.09533 20.4346 6.33034 20.6696C6.56534 20.9046 6.82442 21.0024 7 21.0024H17C17.1756 21.0024 17.4347 20.9046 17.6697 20.6696C17.9047 20.4346 18.0025 20.1755 18.0025 19.9999V6.99744H16.0223L16 6.99769L15.9777 6.99744H8.0223L8 6.99769L7.9777 6.99744Z" fill="black"/>
</svg>
