<svg xmlns="http://www.w3.org/2000/svg" width="24" height="24" viewBox="0 0 24 24" fill="none">
  <path fill-rule="evenodd" clip-rule="evenodd" d="M6 7C6 5.34315 7.34315 4 9 4C10.6569 4 12 5.34315 12 7C12 8.65686 10.6569 10 9 10C7.34315 10 6 8.65686 6 7ZM9 2C6.23858 2 4 4.23858 4 7C4 9.76142 6.23858 12 9 12C11.7614 12 14 9.76142 14 7C14 4.23858 11.7614 2 9 2ZM5 14C3.67392 14 2.40215 14.5268 1.46447 15.4645C0.526785 16.4021 0 17.6739 0 19V21C0 21.5523 0.447715 22 1 22C1.55228 22 2 21.5523 2 21V19C2 18.2044 2.31607 17.4413 2.87868 16.8787C3.44129 16.3161 4.20435 16 5 16H13C13.7957 16 14.5587 16.3161 15.1213 16.8787C15.6839 17.4413 16 18.2044 16 19V21C16 21.5523 16.4477 22 17 22C17.5523 22 18 21.5523 18 21V19C18 17.6739 17.4732 16.4021 16.5355 15.4645C15.5979 14.5268 14.3261 14 13 14H5ZM19.0318 14.8799C19.1698 14.3451 19.7153 14.0236 20.25 14.1616C21.3227 14.4386 22.273 15.064 22.9517 15.9395C23.6304 16.8151 23.9992 17.8913 24 18.9991V20.9999C24 21.5522 23.5523 21.9999 23 21.9999C22.4477 21.9999 22 21.5522 22 20.9999V19.0006C21.9994 18.336 21.7782 17.6901 21.371 17.1649C20.9638 16.6395 20.3936 16.2643 19.75 16.0981C19.2153 15.9601 18.8937 15.4146 19.0318 14.8799ZM16.248 2.16113C15.713 2.02414 15.1682 2.34681 15.0312 2.88184C14.8943 3.41687 15.2169 3.96164 15.752 4.09863C16.3973 4.26385 16.9692 4.63915 17.3777 5.16536C17.7861 5.69157 18.0078 6.33875 18.0078 7.00488C18.0078 7.67101 17.7861 8.31819 17.3777 8.8444C16.9692 9.3706 16.3973 9.7459 15.752 9.91113C15.2169 10.0481 14.8943 10.5929 15.0312 11.1279C15.1682 11.6629 15.713 11.9856 16.248 11.8486C17.3236 11.5733 18.2768 10.9478 18.9576 10.0707C19.6383 9.19373 20.0078 8.11509 20.0078 7.00488C20.0078 5.89467 19.6383 4.81603 18.9576 3.93902C18.2768 3.06201 17.3236 2.43651 16.248 2.16113Z" fill="black"/>
</svg>
