<svg
   width="24"
   height="24"
   viewBox="0 0 24 24"
   xmlns="http://www.w3.org/2000/svg">
  <path
     d="M 3,4 C 1.34315,4 0,5.34315 0,7 v 10 c 0,1.6569 1.34315,3 3,3 h 12 c 1.6569,0 3,-1.3431 3,-3 v -1.130859 l 3.667969,2.445312 c 0.2259,0.1503 0.488765,0.2371 0.759765,0.25 0.271,0.013 0.540097,-0.04768 0.779297,-0.175781 0.2392,-0.128 0.440578,-0.320035 0.580078,-0.552735 C 23.926509,17.603137 23.9999,17.337706 24,17.066406 V 6.8710937 c 0,-0.26383 -0.06897,-0.5235931 -0.201172,-0.7519531 -0.1321,-0.22845 -0.321981,-0.4193112 -0.550781,-0.5507812 -0.2289,-0.13147 -0.490006,-0.2001188 -0.753906,-0.1992188 -0.2639,9e-4 -0.522,0.072048 -0.75,0.2050781 L 18,7.7578125 V 7 C 18,5.34315 16.6569,4 15,4 Z m 0,2 h 12 c 0.5523,0 1,0.44772 1,1 v 2.4824219 c -2e-4,0.01201 -2e-4,0.025089 0,0.037109 v 4.4648441 c -10e-5,0.0097 -10e-5,0.0196 0,0.0293 V 17 c 0,0.5523 -0.4477,1 -1,1 H 3 C 2.44772,18 2,17.5523 2,17 V 7 C 2,6.44772 2.44772,6 3,6 Z m 19,1.7402344 v 8.3906246 l -4,-2.666015 v -3.390625 z" />
</svg>
