<svg width="18" height="18" viewBox="0 0 18 18" fill="none" xmlns="http://www.w3.org/2000/svg">
    <path d="M14.415 11.18L12.525 10.9625C12.0675 10.91 11.6175 11.0675 11.295 11.39L9.90753 12.7775C8.84328 12.2375 7.87803 11.5332 7.04403 10.6985C6.20928 9.8645 5.50503 8.89925 4.96503 7.835L6.35253 6.4475C6.67503 6.125 6.83253 5.675 6.78003 5.2175L6.56253 3.3275C6.47253 2.57 5.83503 2 5.07003 2H3.77253C2.92503 2 2.22003 2.705 2.27253 3.5525C2.47128 6.75425 3.85053 9.6335 5.97978 11.7627C8.10903 13.892 10.9883 15.2712 14.19 15.47C15.0375 15.5225 15.7425 14.8175 15.7425 13.97V12.6725C15.7425 11.9075 15.1725 11.27 14.415 11.18Z" fill="#666666"/>
    <path d="M11.4189 2.65186C11.1782 2.41111 11.348 2 11.6885 2H14.6636C15.1263 2 15.5 2.37368 15.5 2.83643V5.81006C15.5 6.15056 15.0896 6.32181 14.8481 6.08106L13.6631 4.89746L10.6246 8L9.5 6.93945L12.6025 3.83691L11.4189 2.65186Z" fill="#666666"/>
</svg>
